<mxfile host="Electron" agent="Mozilla/5.0 (Windows NT 10.0; Win64; x64) AppleWebKit/537.36 (KHTML, like Gecko) draw.io/24.7.8 Chrome/128.0.6613.36 Electron/32.0.1 Safari/537.36" version="24.7.8" pages="2">
  <diagram id="mmRT3z5Kk6LV52Fl2_iC" name="Emission Rule Examples">
    <mxGraphModel dx="2654" dy="591" grid="1" gridSize="10" guides="1" tooltips="1" connect="1" arrows="1" fold="1" page="1" pageScale="1" pageWidth="1654" pageHeight="1169" math="1" shadow="0">
      <root>
        <mxCell id="0" />
        <mxCell id="1" parent="0" />
        <mxCell id="4f3HucDK4AuG4sA7p0PZ-256" value="&lt;span style=&quot;font-size: 42px;&quot;&gt;.5&lt;/span&gt;&lt;br&gt;&lt;font style=&quot;font-size: 20px;&quot;&gt;7.5cm = [295.5]&lt;/font&gt;" style="rounded=0;whiteSpace=wrap;html=1;labelBackgroundColor=none;strokeColor=#000000;strokeWidth=1;fontFamily=CMU Sans Serif;fontSize=9;fillColor=none;fontColor=#808080;" parent="1" vertex="1">
          <mxGeometry x="-632.5" y="362.90999999999997" width="295" height="248.59" as="geometry" />
        </mxCell>
        <mxCell id="4f3HucDK4AuG4sA7p0PZ-311" value="&lt;span style=&quot;font-size: 42px;&quot;&gt;.5&lt;/span&gt;&lt;br&gt;&lt;font style=&quot;font-size: 20px;&quot;&gt;7.5cm = [295.5]&lt;/font&gt;" style="rounded=0;whiteSpace=wrap;html=1;labelBackgroundColor=none;strokeColor=#000000;strokeWidth=1;fontFamily=CMU Sans Serif;fontSize=9;fillColor=none;fontColor=#808080;" parent="1" vertex="1">
          <mxGeometry x="-337.5" y="362.90999999999997" width="295" height="248.59" as="geometry" />
        </mxCell>
        <mxCell id="jUSs1SHOjHuWD_IhhnA5-265" value="&lt;span style=&quot;font-size: 42px;&quot;&gt;\textwidth&lt;/span&gt;&lt;br&gt;&lt;font style=&quot;font-size: 20px;&quot;&gt;150mm = [591]&lt;/font&gt;" style="rounded=0;whiteSpace=wrap;html=1;labelBackgroundColor=none;strokeColor=default;strokeWidth=0;fontFamily=CMU Sans Serif;fontSize=9;fillColor=none;fontColor=#CFCFCF;labelPosition=center;verticalLabelPosition=middle;align=center;verticalAlign=middle;" parent="1" vertex="1">
          <mxGeometry x="-15.5" y="390" width="591" height="390" as="geometry" />
        </mxCell>
        <mxCell id="Bw2Pz7w6a_ptfYuUT3BN-277" value="" style="rounded=0;whiteSpace=wrap;html=1;fillColor=none;strokeColor=none;fontFamily=CMU Sans Serif;" parent="1" vertex="1">
          <mxGeometry x="-15.5" y="670" width="591" height="181" as="geometry" />
        </mxCell>
        <mxCell id="Bw2Pz7w6a_ptfYuUT3BN-302" value="&lt;font style=&quot;&quot;&gt;&lt;br&gt;&lt;/font&gt;" style="rounded=0;whiteSpace=wrap;html=1;labelBackgroundColor=none;fontSize=8;fontColor=default;fontFamily=CMU Sans Serif;strokeWidth=0.4;verticalAlign=top;fillOpacity=50;" parent="1" vertex="1">
          <mxGeometry x="214" y="806" width="60" height="40" as="geometry" />
        </mxCell>
        <mxCell id="Bw2Pz7w6a_ptfYuUT3BN-301" value="&lt;font style=&quot;&quot;&gt;&lt;br&gt;&lt;/font&gt;" style="rounded=0;whiteSpace=wrap;html=1;labelBackgroundColor=none;fontSize=8;fontColor=default;fontFamily=CMU Sans Serif;strokeWidth=0.4;verticalAlign=top;fillOpacity=50;" parent="1" vertex="1">
          <mxGeometry x="212" y="808" width="60" height="40" as="geometry" />
        </mxCell>
        <mxCell id="nNcmpORyTHAwhuXfsw60-231" value="" style="rounded=0;whiteSpace=wrap;html=1;fillColor=none;strokeColor=none;" parent="1" vertex="1">
          <mxGeometry x="840" y="379" width="360" height="231" as="geometry" />
        </mxCell>
        <mxCell id="nNcmpORyTHAwhuXfsw60-230" value="" style="rounded=0;whiteSpace=wrap;html=1;fillColor=none;strokeColor=none;" parent="1" vertex="1">
          <mxGeometry x="1220" y="379" width="360" height="231" as="geometry" />
        </mxCell>
        <mxCell id="156" value="" style="rounded=0;whiteSpace=wrap;html=1;labelBackgroundColor=none;strokeColor=default;fontSize=9;fontColor=default;fillColor=#F0F0F0;" parent="1" vertex="1">
          <mxGeometry x="850" y="410" width="240" height="60" as="geometry" />
        </mxCell>
        <mxCell id="96" value="0.0722 kgCO2e/tonne-km&lt;br&gt;climatiq ID&amp;nbsp;&lt;span style=&quot;font-family: var(--monaco-monospace-font);&quot;&gt;324c9d45-d24f-4464-a14a-657b8d14b987&lt;/span&gt;&lt;br&gt;&lt;span class=&quot;mr-2 group-hover:text-brand&quot;&gt;Road freight diesel HGV 100% laden&lt;br&gt;&lt;/span&gt;&lt;span style=&quot;font-family: var(--monaco-monospace-font);&quot;&gt;LCA: fuel_combustion&lt;br&gt;&lt;/span&gt;" style="text;html=1;strokeColor=none;fillColor=none;align=left;verticalAlign=middle;whiteSpace=wrap;rounded=0;labelBackgroundColor=none;fontColor=default;" parent="1" vertex="1">
          <mxGeometry x="850" y="300" width="310" height="70" as="geometry" />
        </mxCell>
        <mxCell id="139" value="0.0722 &lt;font style=&quot;font-size: 8px;&quot;&gt;kgCO&lt;sub&gt;2&lt;/sub&gt;e / tkm&lt;/font&gt;" style="rounded=0;whiteSpace=wrap;html=1;" parent="1" vertex="1">
          <mxGeometry x="860" y="420" width="60" height="40" as="geometry" />
        </mxCell>
        <mxCell id="140" value="&lt;font style=&quot;font-size: 10px;&quot;&gt;event&lt;br style=&quot;&quot;&gt;&lt;/font&gt;&lt;div style=&quot;font-size: 10px;&quot;&gt;&lt;font style=&quot;font-size: 10px;&quot;&gt;attribute&lt;/font&gt;&lt;/div&gt;" style="edgeStyle=orthogonalEdgeStyle;rounded=0;html=1;exitX=0.5;exitY=1;exitDx=0;exitDy=0;entryX=0.5;entryY=0;entryDx=0;entryDy=0;strokeWidth=1;fontSize=8;fontColor=default;endArrow=none;endFill=0;align=left;" parent="1" source="141" target="147" edge="1">
          <mxGeometry x="0.1429" y="10" relative="1" as="geometry">
            <mxPoint as="offset" />
          </mxGeometry>
        </mxCell>
        <mxCell id="141" value="distance &lt;font style=&quot;font-size: 8px;&quot;&gt;[km]&lt;/font&gt;" style="rounded=0;whiteSpace=wrap;html=1;" parent="1" vertex="1">
          <mxGeometry x="1020" y="420" width="60" height="40" as="geometry" />
        </mxCell>
        <mxCell id="143" style="edgeStyle=orthogonalEdgeStyle;rounded=0;html=1;entryX=0.5;entryY=0;entryDx=0;entryDy=0;strokeWidth=1;fontSize=10;fontColor=default;endArrow=none;endFill=0;" parent="1" source="145" target="148" edge="1">
          <mxGeometry relative="1" as="geometry" />
        </mxCell>
        <mxCell id="144" value="&lt;font style=&quot;font-size: 10px;&quot;&gt;object&lt;br&gt;attribute&lt;/font&gt;" style="edgeLabel;html=1;align=right;verticalAlign=middle;resizable=0;points=[];fontSize=8;fontColor=default;" parent="143" vertex="1" connectable="0">
          <mxGeometry x="-0.2762" y="2" relative="1" as="geometry">
            <mxPoint x="-12" y="16" as="offset" />
          </mxGeometry>
        </mxCell>
        <mxCell id="145" value="weight&lt;br&gt;&lt;font style=&quot;font-size: 8px;&quot;&gt;[t]&lt;/font&gt;" style="rounded=0;whiteSpace=wrap;html=1;" parent="1" vertex="1">
          <mxGeometry x="940" y="420" width="60" height="40" as="geometry" />
        </mxCell>
        <mxCell id="146" value="&lt;font style=&quot;font-size: 10px;&quot;&gt;q:drive&lt;/font&gt;" style="edgeStyle=orthogonalEdgeStyle;rounded=0;html=1;exitX=0.75;exitY=0;exitDx=0;exitDy=0;strokeWidth=1;fontSize=9;fontColor=default;endArrow=none;endFill=0;dashed=1;startArrow=none;startFill=0;entryX=0.25;entryY=0;entryDx=0;entryDy=0;" parent="1" source="148" target="147" edge="1">
          <mxGeometry x="0.0049" y="10" relative="1" as="geometry">
            <mxPoint as="offset" />
            <mxPoint x="985" y="520" as="sourcePoint" />
            <mxPoint x="1035" y="520" as="targetPoint" />
            <Array as="points">
              <mxPoint x="985" y="510" />
              <mxPoint x="1035" y="510" />
            </Array>
          </mxGeometry>
        </mxCell>
        <mxCell id="fZO7g0J4GnvGZoQOrJJ--248" value="1" style="edgeLabel;html=1;align=left;verticalAlign=middle;resizable=0;points=[];fontSize=8;" parent="146" vertex="1" connectable="0">
          <mxGeometry x="-0.8169" y="-1" relative="1" as="geometry">
            <mxPoint x="4" y="-2" as="offset" />
          </mxGeometry>
        </mxCell>
        <mxCell id="fZO7g0J4GnvGZoQOrJJ--249" value="n" style="edgeLabel;html=1;align=right;verticalAlign=middle;resizable=0;points=[];fontSize=8;" parent="146" vertex="1" connectable="0">
          <mxGeometry x="0.7958" y="2" relative="1" as="geometry">
            <mxPoint x="-7" y="-1" as="offset" />
          </mxGeometry>
        </mxCell>
        <mxCell id="147" value="&lt;font style=&quot;&quot;&gt;&lt;span style=&quot;font-size: 12px;&quot;&gt;Transport&lt;/span&gt;&lt;br&gt;&lt;font style=&quot;font-size: 10px;&quot;&gt;(event)&lt;/font&gt;&lt;br&gt;&lt;/font&gt;" style="rounded=0;whiteSpace=wrap;html=1;labelBackgroundColor=none;fontSize=8;fontColor=default;" parent="1" vertex="1">
          <mxGeometry x="1020" y="530" width="60" height="40" as="geometry" />
        </mxCell>
        <mxCell id="148" value="&lt;font style=&quot;&quot;&gt;&lt;span style=&quot;font-size: 12px;&quot;&gt;Truck&lt;/span&gt;&lt;br&gt;&lt;font style=&quot;font-size: 10px;&quot;&gt;(object)&lt;/font&gt;&lt;br&gt;&lt;/font&gt;" style="rounded=0;whiteSpace=wrap;html=1;labelBackgroundColor=none;fontSize=8;fontColor=default;" parent="1" vertex="1">
          <mxGeometry x="940" y="530" width="60" height="40" as="geometry" />
        </mxCell>
        <mxCell id="149" value="" style="shape=mxgraph.signs.transportation.truck_1;html=1;pointerEvents=1;fillColor=#000000;strokeColor=none;verticalLabelPosition=bottom;verticalAlign=top;align=center;labelBackgroundColor=none;fontSize=8;fontColor=default;" parent="1" vertex="1">
          <mxGeometry x="950.5900000000001" y="580" width="38.83" height="20" as="geometry" />
        </mxCell>
        <mxCell id="150" value="" style="sketch=0;outlineConnect=0;dashed=0;verticalLabelPosition=bottom;verticalAlign=top;align=center;html=1;fontSize=12;fontStyle=0;aspect=fixed;shape=mxgraph.aws4.location_service_routes;labelBackgroundColor=none;fillColor=#000000;strokeColor=none;" parent="1" vertex="1">
          <mxGeometry x="1035" y="575.75" width="30" height="30" as="geometry" />
        </mxCell>
        <mxCell id="151" value="&lt;font style=&quot;font-size: 10px;&quot;&gt;event&lt;br&gt;attribute&lt;/font&gt;" style="edgeStyle=orthogonalEdgeStyle;rounded=0;html=1;exitX=0.5;exitY=1;exitDx=0;exitDy=0;entryX=1;entryY=0.5;entryDx=0;entryDy=0;strokeWidth=1;fontSize=11;fontColor=default;endArrow=classic;endFill=1;align=left;" parent="1" source="152" target="147" edge="1">
          <mxGeometry x="-0.4667" y="10" relative="1" as="geometry">
            <mxPoint x="930" y="550" as="targetPoint" />
            <mxPoint as="offset" />
          </mxGeometry>
        </mxCell>
        <mxCell id="152" value="&lt;font style=&quot;&quot;&gt;&lt;span style=&quot;font-size: 11px;&quot;&gt;CO&lt;/span&gt;&lt;sub style=&quot;font-size: 11px;&quot;&gt;2&lt;/sub&gt;&lt;span style=&quot;font-size: 11px;&quot;&gt;e&lt;/span&gt;&lt;br&gt;&lt;font style=&quot;font-size: 8px;&quot;&gt;[kg]&lt;/font&gt;&lt;br&gt;&lt;/font&gt;" style="rounded=0;whiteSpace=wrap;html=1;" parent="1" vertex="1">
          <mxGeometry x="1110" y="420" width="60" height="40" as="geometry" />
        </mxCell>
        <mxCell id="153" value="&lt;span style=&quot;font-size: 12px;&quot;&gt;×&lt;/span&gt;" style="text;html=1;strokeColor=none;fillColor=none;align=center;verticalAlign=middle;whiteSpace=wrap;rounded=0;labelBackgroundColor=none;fontSize=9;fontColor=default;" parent="1" vertex="1">
          <mxGeometry x="920" y="420" width="20" height="40" as="geometry" />
        </mxCell>
        <mxCell id="155" value="&lt;span style=&quot;font-size: 12px;&quot;&gt;×&lt;/span&gt;" style="text;html=1;strokeColor=none;fillColor=none;align=center;verticalAlign=middle;whiteSpace=wrap;rounded=0;labelBackgroundColor=none;fontSize=9;fontColor=default;" parent="1" vertex="1">
          <mxGeometry x="1000" y="420" width="20" height="40" as="geometry" />
        </mxCell>
        <mxCell id="157" value="&lt;span style=&quot;font-size: 12px;&quot;&gt;=&lt;/span&gt;" style="text;html=1;strokeColor=none;fillColor=none;align=center;verticalAlign=middle;whiteSpace=wrap;rounded=0;labelBackgroundColor=none;fontSize=9;fontColor=default;" parent="1" vertex="1">
          <mxGeometry x="1090" y="420" width="20" height="40" as="geometry" />
        </mxCell>
        <mxCell id="214" value="&lt;font style=&quot;font-size: 10px;&quot;&gt;Event emission rule&lt;/font&gt;" style="text;html=1;strokeColor=none;fillColor=none;align=center;verticalAlign=middle;whiteSpace=wrap;rounded=0;labelBackgroundColor=none;fontSize=8;fontColor=default;" parent="1" vertex="1">
          <mxGeometry x="850" y="379" width="240" height="30" as="geometry" />
        </mxCell>
        <mxCell id="fZO7g0J4GnvGZoQOrJJ--251" value="" style="rounded=0;whiteSpace=wrap;html=1;labelBackgroundColor=none;strokeColor=default;fontSize=9;fontColor=default;fillColor=#F0F0F0;" parent="1" vertex="1">
          <mxGeometry x="1230" y="410" width="240" height="60" as="geometry" />
        </mxCell>
        <mxCell id="fZO7g0J4GnvGZoQOrJJ--252" value="0.076&lt;div style=&quot;&quot;&gt;&lt;font style=&quot;font-size: 7px;&quot;&gt;kgCO&lt;sub&gt;2&lt;/sub&gt;e / &lt;/font&gt;&lt;font style=&quot;font-size: 5px;&quot;&gt;TEU-&lt;/font&gt;&lt;font style=&quot;font-size: 7px;&quot;&gt;km&lt;/font&gt;&lt;/div&gt;" style="rounded=0;whiteSpace=wrap;html=1;" parent="1" vertex="1">
          <mxGeometry x="1240" y="420" width="60" height="40" as="geometry" />
        </mxCell>
        <mxCell id="fZO7g0J4GnvGZoQOrJJ--253" value="&lt;font style=&quot;font-size: 10px;&quot;&gt;event&lt;br style=&quot;&quot;&gt;&lt;/font&gt;&lt;div style=&quot;font-size: 10px;&quot;&gt;&lt;font style=&quot;font-size: 10px;&quot;&gt;attribute&lt;/font&gt;&lt;/div&gt;" style="edgeStyle=orthogonalEdgeStyle;rounded=0;html=1;exitX=0.5;exitY=1;exitDx=0;exitDy=0;entryX=0.5;entryY=0;entryDx=0;entryDy=0;strokeWidth=1;fontSize=8;fontColor=default;endArrow=none;endFill=0;align=left;" parent="1" source="fZO7g0J4GnvGZoQOrJJ--254" target="fZO7g0J4GnvGZoQOrJJ--261" edge="1">
          <mxGeometry x="0.1429" y="10" relative="1" as="geometry">
            <mxPoint as="offset" />
          </mxGeometry>
        </mxCell>
        <mxCell id="fZO7g0J4GnvGZoQOrJJ--254" value="distance &lt;font style=&quot;font-size: 8px;&quot;&gt;[km]&lt;/font&gt;" style="rounded=0;whiteSpace=wrap;html=1;" parent="1" vertex="1">
          <mxGeometry x="1400" y="420" width="60" height="40" as="geometry" />
        </mxCell>
        <mxCell id="fZO7g0J4GnvGZoQOrJJ--255" value="object&lt;div&gt;attribute&lt;/div&gt;" style="edgeStyle=orthogonalEdgeStyle;rounded=0;html=1;entryX=0.5;entryY=0;entryDx=0;entryDy=0;strokeWidth=1;fontSize=10;fontColor=default;endArrow=none;endFill=0;align=right;" parent="1" source="fZO7g0J4GnvGZoQOrJJ--257" target="fZO7g0J4GnvGZoQOrJJ--262" edge="1">
          <mxGeometry x="0.1429" y="-10" relative="1" as="geometry">
            <mxPoint as="offset" />
          </mxGeometry>
        </mxCell>
        <mxCell id="fZO7g0J4GnvGZoQOrJJ--257" value="size&lt;div&gt;&lt;font style=&quot;font-size: 8px;&quot;&gt;[TEU]&lt;/font&gt;&lt;/div&gt;" style="rounded=0;whiteSpace=wrap;html=1;" parent="1" vertex="1">
          <mxGeometry x="1320" y="420" width="60" height="40" as="geometry" />
        </mxCell>
        <mxCell id="fZO7g0J4GnvGZoQOrJJ--258" value="&lt;font style=&quot;font-size: 10px;&quot;&gt;q:ship&lt;/font&gt;" style="edgeStyle=orthogonalEdgeStyle;rounded=0;html=1;exitX=0.75;exitY=0;exitDx=0;exitDy=0;strokeWidth=1;fontSize=9;fontColor=default;endArrow=none;endFill=0;dashed=1;startArrow=none;startFill=0;entryX=0.25;entryY=0;entryDx=0;entryDy=0;" parent="1" source="fZO7g0J4GnvGZoQOrJJ--262" target="fZO7g0J4GnvGZoQOrJJ--261" edge="1">
          <mxGeometry x="0.0049" y="10" relative="1" as="geometry">
            <mxPoint as="offset" />
            <mxPoint x="1365" y="520" as="sourcePoint" />
            <mxPoint x="1415" y="520" as="targetPoint" />
            <Array as="points">
              <mxPoint x="1365" y="510" />
              <mxPoint x="1415" y="510" />
            </Array>
          </mxGeometry>
        </mxCell>
        <mxCell id="fZO7g0J4GnvGZoQOrJJ--259" value="n" style="edgeLabel;html=1;align=left;verticalAlign=middle;resizable=0;points=[];fontSize=8;" parent="fZO7g0J4GnvGZoQOrJJ--258" vertex="1" connectable="0">
          <mxGeometry x="-0.8169" y="-1" relative="1" as="geometry">
            <mxPoint x="4" y="-2" as="offset" />
          </mxGeometry>
        </mxCell>
        <mxCell id="fZO7g0J4GnvGZoQOrJJ--260" value="1" style="edgeLabel;html=1;align=right;verticalAlign=middle;resizable=0;points=[];fontSize=8;" parent="fZO7g0J4GnvGZoQOrJJ--258" vertex="1" connectable="0">
          <mxGeometry x="0.7958" y="2" relative="1" as="geometry">
            <mxPoint x="-7" y="-1" as="offset" />
          </mxGeometry>
        </mxCell>
        <mxCell id="fZO7g0J4GnvGZoQOrJJ--261" value="&lt;font style=&quot;&quot;&gt;&lt;span style=&quot;font-size: 12px;&quot;&gt;Transport&lt;/span&gt;&lt;br&gt;&lt;font style=&quot;font-size: 10px;&quot;&gt;(event)&lt;/font&gt;&lt;br&gt;&lt;/font&gt;" style="rounded=0;whiteSpace=wrap;html=1;labelBackgroundColor=none;fontSize=8;fontColor=default;" parent="1" vertex="1">
          <mxGeometry x="1400" y="530" width="60" height="40" as="geometry" />
        </mxCell>
        <mxCell id="fZO7g0J4GnvGZoQOrJJ--262" value="&lt;font style=&quot;&quot;&gt;&lt;span style=&quot;font-size: 12px;&quot;&gt;Container&lt;/span&gt;&lt;br&gt;&lt;font style=&quot;font-size: 10px;&quot;&gt;(object)&lt;/font&gt;&lt;br&gt;&lt;/font&gt;" style="rounded=0;whiteSpace=wrap;html=1;labelBackgroundColor=none;fontSize=8;fontColor=default;" parent="1" vertex="1">
          <mxGeometry x="1320" y="530" width="60" height="40" as="geometry" />
        </mxCell>
        <mxCell id="fZO7g0J4GnvGZoQOrJJ--264" value="" style="sketch=0;outlineConnect=0;dashed=0;verticalLabelPosition=bottom;verticalAlign=top;align=center;html=1;fontSize=12;fontStyle=0;aspect=fixed;shape=mxgraph.aws4.location_service_routes;labelBackgroundColor=none;fillColor=#000000;strokeColor=none;" parent="1" vertex="1">
          <mxGeometry x="1415" y="575.75" width="30" height="30" as="geometry" />
        </mxCell>
        <mxCell id="fZO7g0J4GnvGZoQOrJJ--265" value="&lt;font style=&quot;font-size: 10px;&quot;&gt;event&lt;br&gt;attribute&lt;/font&gt;" style="edgeStyle=orthogonalEdgeStyle;rounded=0;html=1;exitX=0;exitY=0.5;exitDx=0;exitDy=0;entryX=1;entryY=0.5;entryDx=0;entryDy=0;strokeWidth=1;fontSize=11;fontColor=default;endArrow=classic;endFill=1;align=center;" parent="1" source="fZO7g0J4GnvGZoQOrJJ--273" target="fZO7g0J4GnvGZoQOrJJ--261" edge="1">
          <mxGeometry x="-0.3333" y="20" relative="1" as="geometry">
            <mxPoint x="1310" y="550" as="targetPoint" />
            <mxPoint as="offset" />
          </mxGeometry>
        </mxCell>
        <mxCell id="fZO7g0J4GnvGZoQOrJJ--274" style="edgeStyle=orthogonalEdgeStyle;rounded=0;orthogonalLoop=1;jettySize=auto;html=1;exitX=0.5;exitY=1;exitDx=0;exitDy=0;entryX=0.5;entryY=0;entryDx=0;entryDy=0;" parent="1" source="fZO7g0J4GnvGZoQOrJJ--266" target="fZO7g0J4GnvGZoQOrJJ--273" edge="1">
          <mxGeometry relative="1" as="geometry" />
        </mxCell>
        <mxCell id="fZO7g0J4GnvGZoQOrJJ--266" value="&lt;font style=&quot;&quot;&gt;&lt;span style=&quot;font-size: 11px;&quot;&gt;CO&lt;/span&gt;&lt;sub style=&quot;font-size: 11px;&quot;&gt;2&lt;/sub&gt;&lt;span style=&quot;font-size: 11px;&quot;&gt;e&lt;/span&gt;&lt;br&gt;&lt;font style=&quot;font-size: 8px;&quot;&gt;[kg]&lt;/font&gt;&lt;br&gt;&lt;/font&gt;" style="rounded=0;whiteSpace=wrap;html=1;" parent="1" vertex="1">
          <mxGeometry x="1490" y="420" width="60" height="40" as="geometry" />
        </mxCell>
        <mxCell id="fZO7g0J4GnvGZoQOrJJ--267" value="&lt;span style=&quot;font-size: 12px;&quot;&gt;×&lt;/span&gt;" style="text;html=1;strokeColor=none;fillColor=none;align=center;verticalAlign=middle;whiteSpace=wrap;rounded=0;labelBackgroundColor=none;fontSize=9;fontColor=default;" parent="1" vertex="1">
          <mxGeometry x="1300" y="420" width="20" height="40" as="geometry" />
        </mxCell>
        <mxCell id="fZO7g0J4GnvGZoQOrJJ--268" value="&lt;span style=&quot;font-size: 12px;&quot;&gt;×&lt;/span&gt;" style="text;html=1;strokeColor=none;fillColor=none;align=center;verticalAlign=middle;whiteSpace=wrap;rounded=0;labelBackgroundColor=none;fontSize=9;fontColor=default;" parent="1" vertex="1">
          <mxGeometry x="1380" y="420" width="20" height="40" as="geometry" />
        </mxCell>
        <mxCell id="fZO7g0J4GnvGZoQOrJJ--269" value="&lt;span style=&quot;font-size: 12px;&quot;&gt;=&lt;/span&gt;" style="text;html=1;strokeColor=none;fillColor=none;align=center;verticalAlign=middle;whiteSpace=wrap;rounded=0;labelBackgroundColor=none;fontSize=9;fontColor=default;" parent="1" vertex="1">
          <mxGeometry x="1470" y="420" width="20" height="40" as="geometry" />
        </mxCell>
        <mxCell id="fZO7g0J4GnvGZoQOrJJ--270" value="&lt;font style=&quot;font-size: 10px;&quot;&gt;E2O emission rule&lt;/font&gt;" style="text;html=1;strokeColor=none;fillColor=none;align=center;verticalAlign=middle;whiteSpace=wrap;rounded=0;labelBackgroundColor=none;fontSize=8;fontColor=default;" parent="1" vertex="1">
          <mxGeometry x="1230" y="379" width="240" height="30" as="geometry" />
        </mxCell>
        <mxCell id="fZO7g0J4GnvGZoQOrJJ--273" value="&lt;span style=&quot;font-size: 11px; text-wrap: nowrap; background-color: rgb(255, 255, 255);&quot;&gt;\(\Sigma\)&lt;/span&gt;" style="ellipse;whiteSpace=wrap;html=1;aspect=fixed;" parent="1" vertex="1">
          <mxGeometry x="1505" y="535" width="30" height="30" as="geometry" />
        </mxCell>
        <mxCell id="fZO7g0J4GnvGZoQOrJJ--287" value="0.076 kgCO2e/TEU-km&lt;br&gt;climatiq ID&amp;nbsp;&lt;span style=&quot;background-color: initial;&quot;&gt;0e3a74a0-8308-4e7f-982a-f39aa85f2aa3&lt;/span&gt;&lt;br&gt;&lt;span class=&quot;mr-2 group-hover:text-brand&quot;&gt;Container ship (dry)&lt;br&gt;&lt;/span&gt;&lt;span style=&quot;font-family: var(--monaco-monospace-font);&quot;&gt;LCA: well-to-wheel&lt;br&gt;&lt;/span&gt;" style="text;html=1;strokeColor=none;fillColor=none;align=left;verticalAlign=middle;whiteSpace=wrap;rounded=0;labelBackgroundColor=none;fontColor=default;" parent="1" vertex="1">
          <mxGeometry x="1230" y="300" width="310" height="70" as="geometry" />
        </mxCell>
        <mxCell id="fZO7g0J4GnvGZoQOrJJ--292" value="" style="group" parent="1" vertex="1" connectable="0">
          <mxGeometry x="1330.5" y="570" width="35" height="40" as="geometry" />
        </mxCell>
        <mxCell id="fZO7g0J4GnvGZoQOrJJ--288" value="" style="rounded=0;whiteSpace=wrap;html=1;" parent="fZO7g0J4GnvGZoQOrJJ--292" vertex="1">
          <mxGeometry x="5" y="10" width="30" height="20" as="geometry" />
        </mxCell>
        <mxCell id="fZO7g0J4GnvGZoQOrJJ--289" value="" style="endArrow=none;html=1;rounded=0;entryX=0.25;entryY=0;entryDx=0;entryDy=0;exitX=0.25;exitY=1;exitDx=0;exitDy=0;" parent="fZO7g0J4GnvGZoQOrJJ--292" source="fZO7g0J4GnvGZoQOrJJ--288" target="fZO7g0J4GnvGZoQOrJJ--288" edge="1">
          <mxGeometry width="50" height="50" relative="1" as="geometry">
            <mxPoint x="178.125" y="102" as="sourcePoint" />
            <mxPoint x="215.625" y="42" as="targetPoint" />
          </mxGeometry>
        </mxCell>
        <mxCell id="fZO7g0J4GnvGZoQOrJJ--290" value="" style="endArrow=none;html=1;rounded=0;entryX=0.5;entryY=0;entryDx=0;entryDy=0;exitX=0.5;exitY=1;exitDx=0;exitDy=0;" parent="fZO7g0J4GnvGZoQOrJJ--292" source="fZO7g0J4GnvGZoQOrJJ--288" target="fZO7g0J4GnvGZoQOrJJ--288" edge="1">
          <mxGeometry width="50" height="50" relative="1" as="geometry">
            <mxPoint x="72.95249999999999" y="204" as="sourcePoint" />
            <mxPoint x="72.95249999999999" y="132" as="targetPoint" />
          </mxGeometry>
        </mxCell>
        <mxCell id="fZO7g0J4GnvGZoQOrJJ--291" value="" style="endArrow=none;html=1;rounded=0;entryX=0.75;entryY=0;entryDx=0;entryDy=0;exitX=0.75;exitY=1;exitDx=0;exitDy=0;" parent="fZO7g0J4GnvGZoQOrJJ--292" source="fZO7g0J4GnvGZoQOrJJ--288" target="fZO7g0J4GnvGZoQOrJJ--288" edge="1">
          <mxGeometry width="50" height="50" relative="1" as="geometry">
            <mxPoint x="88.125" y="204" as="sourcePoint" />
            <mxPoint x="88.125" y="132" as="targetPoint" />
          </mxGeometry>
        </mxCell>
        <mxCell id="jUSs1SHOjHuWD_IhhnA5-256" value="&lt;span style=&quot;font-size: 42px;&quot;&gt;\textwidth&lt;/span&gt;&lt;br&gt;&lt;font style=&quot;font-size: 20px;&quot;&gt;150mm = [591]&lt;/font&gt;" style="rounded=0;whiteSpace=wrap;html=1;labelBackgroundColor=none;strokeColor=#808080;strokeWidth=1;fontFamily=CMU Sans Serif;fontSize=9;fillColor=none;fontColor=#CFCFCF;" parent="1" vertex="1">
          <mxGeometry x="940" y="1279" width="591" height="190" as="geometry" />
        </mxCell>
        <mxCell id="jUSs1SHOjHuWD_IhhnA5-257" value="&lt;font style=&quot;font-size: 20px;&quot;&gt;&lt;span style=&quot;font-size: 42px;&quot;&gt;A4 paper&lt;/span&gt;&lt;br&gt;&lt;font style=&quot;font-size: 20px;&quot;&gt;210mm = [827]&amp;nbsp;&lt;/font&gt;(1 cm = [39.4])&lt;br&gt;&lt;/font&gt;" style="rounded=0;whiteSpace=wrap;html=1;labelBackgroundColor=none;strokeColor=#000000;strokeWidth=1;fontFamily=CMU Sans Serif;fontSize=9;fillColor=none;fontColor=#B3B3B3;" parent="1" vertex="1">
          <mxGeometry y="1169" width="827" height="100" as="geometry" />
        </mxCell>
        <mxCell id="jUSs1SHOjHuWD_IhhnA5-258" value="&lt;span style=&quot;font-size: 42px;&quot;&gt;\textwidth&lt;/span&gt;&lt;br&gt;&lt;font style=&quot;font-size: 20px;&quot;&gt;150mm = [591]&lt;/font&gt;" style="rounded=0;whiteSpace=wrap;html=1;labelBackgroundColor=none;strokeColor=#000000;strokeWidth=1;fontFamily=CMU Sans Serif;fontSize=9;fillColor=#FFE8F3;fontColor=#808080;" parent="1" vertex="1">
          <mxGeometry x="138" y="1269" width="591" height="100" as="geometry" />
        </mxCell>
        <mxCell id="jUSs1SHOjHuWD_IhhnA5-259" value="&lt;font style=&quot;font-size: 20px;&quot;&gt;25mm&lt;/font&gt;" style="rounded=0;whiteSpace=wrap;html=1;labelBackgroundColor=none;strokeColor=#000000;strokeWidth=1;fontFamily=CMU Sans Serif;fontSize=9;fillColor=none;fontColor=#B3B3B3;" parent="1" vertex="1">
          <mxGeometry x="729" y="1269" width="98" height="400" as="geometry" />
        </mxCell>
        <mxCell id="jUSs1SHOjHuWD_IhhnA5-260" value="&lt;font style=&quot;font-size: 20px;&quot;&gt;35mm&lt;/font&gt;" style="rounded=0;whiteSpace=wrap;html=1;labelBackgroundColor=none;strokeColor=#000000;strokeWidth=1;fontFamily=CMU Sans Serif;fontSize=9;fillColor=none;fontColor=#B3B3B3;" parent="1" vertex="1">
          <mxGeometry y="1269" width="138" height="400" as="geometry" />
        </mxCell>
        <mxCell id="jUSs1SHOjHuWD_IhhnA5-261" value="&lt;span style=&quot;font-size: 42px;&quot;&gt;.5&lt;/span&gt;&lt;br&gt;&lt;font style=&quot;font-size: 20px;&quot;&gt;7.5cm = [295.5]&lt;/font&gt;" style="rounded=0;whiteSpace=wrap;html=1;labelBackgroundColor=none;strokeColor=#000000;strokeWidth=1;fontFamily=CMU Sans Serif;fontSize=9;fillColor=#FFE8F3;fontColor=#808080;" parent="1" vertex="1">
          <mxGeometry x="138" y="1569" width="295" height="100" as="geometry" />
        </mxCell>
        <mxCell id="jUSs1SHOjHuWD_IhhnA5-262" value="&lt;span style=&quot;font-size: 42px;&quot;&gt;.5&lt;/span&gt;&lt;br&gt;&lt;font style=&quot;font-size: 20px;&quot;&gt;7.5cm = [295.5]&lt;/font&gt;" style="rounded=0;whiteSpace=wrap;html=1;labelBackgroundColor=none;strokeColor=#000000;strokeWidth=1;fontFamily=CMU Sans Serif;fontSize=9;fillColor=#FFE8F3;fontColor=#808080;" parent="1" vertex="1">
          <mxGeometry x="434" y="1569" width="295" height="100" as="geometry" />
        </mxCell>
        <mxCell id="jUSs1SHOjHuWD_IhhnA5-263" value="&lt;span style=&quot;font-size: 42px;&quot;&gt;.9&lt;/span&gt;&lt;br&gt;&lt;font style=&quot;font-size: 20px;&quot;&gt;13.5cm = [532]&lt;/font&gt;" style="rounded=0;whiteSpace=wrap;html=1;labelBackgroundColor=none;strokeColor=#000000;strokeWidth=1;fontFamily=CMU Sans Serif;fontSize=9;fillColor=#FFE8F3;fontColor=#808080;" parent="1" vertex="1">
          <mxGeometry x="168" y="1369" width="532" height="100" as="geometry" />
        </mxCell>
        <mxCell id="jUSs1SHOjHuWD_IhhnA5-264" value="&lt;span style=&quot;font-size: 42px;&quot;&gt;.8&lt;/span&gt;&lt;br&gt;&lt;font style=&quot;font-size: 20px;&quot;&gt;120cm = [473]&lt;/font&gt;" style="rounded=0;whiteSpace=wrap;html=1;labelBackgroundColor=none;strokeColor=#000000;strokeWidth=1;fontFamily=CMU Sans Serif;fontSize=9;fillColor=#FFE8F3;fontColor=#808080;" parent="1" vertex="1">
          <mxGeometry x="197" y="1469" width="473" height="100" as="geometry" />
        </mxCell>
        <mxCell id="jUSs1SHOjHuWD_IhhnA5-267" value="" style="rounded=0;whiteSpace=wrap;html=1;fillColor=none;strokeColor=none;fontFamily=CMU Sans Serif;" parent="1" vertex="1">
          <mxGeometry x="-15.5" y="440" width="591" height="181" as="geometry" />
        </mxCell>
        <mxCell id="jUSs1SHOjHuWD_IhhnA5-268" value="" style="rounded=0;whiteSpace=wrap;html=1;labelBackgroundColor=none;strokeColor=default;fontSize=9;fontColor=default;fillColor=#F0F0F0;fontFamily=CMU Sans Serif;strokeWidth=0.4;" parent="1" vertex="1">
          <mxGeometry x="120" y="460" width="240" height="60" as="geometry" />
        </mxCell>
        <mxCell id="jUSs1SHOjHuWD_IhhnA5-269" value="3.055 kgCO2e/L&lt;br&gt;climatiq ID d56128ea-76e5-4a31-a6fe-b5e1ed855e52&lt;br&gt;&lt;span class=&quot;mr-2 group-hover:text-brand&quot;&gt;Diesel (without biofuel content) per liter used in vehicle&lt;br&gt;&lt;/span&gt;&lt;span style=&quot;font-family: var(--monaco-monospace-font);&quot;&gt;LCA:&amp;nbsp;&lt;/span&gt;&lt;span style=&quot;background-color: initial;&quot;&gt;upstream-use_phase-transport&lt;/span&gt;" style="text;html=1;strokeColor=none;fillColor=none;align=left;verticalAlign=middle;whiteSpace=wrap;rounded=0;labelBackgroundColor=none;fontColor=default;" parent="1" vertex="1">
          <mxGeometry x="491.5" y="495" width="310" height="70" as="geometry" />
        </mxCell>
        <mxCell id="jUSs1SHOjHuWD_IhhnA5-270" value="&lt;font style=&quot;font-size: 11px;&quot;&gt;3.055&lt;/font&gt;&lt;br&gt;&lt;font style=&quot;font-size: 9px;&quot;&gt;kgCO&lt;sub&gt;2&lt;/sub&gt;e / L&lt;/font&gt;" style="rounded=0;whiteSpace=wrap;html=1;fontFamily=CMU Sans Serif;strokeWidth=0.4;verticalAlign=top;" parent="1" vertex="1">
          <mxGeometry x="130" y="470" width="60" height="40" as="geometry" />
        </mxCell>
        <mxCell id="jUSs1SHOjHuWD_IhhnA5-271" value="&lt;font style=&quot;font-size: 9px;&quot;&gt;event&lt;br style=&quot;font-size: 9px;&quot;&gt;&lt;/font&gt;&lt;div style=&quot;font-size: 9px;&quot;&gt;&lt;font style=&quot;font-size: 9px;&quot;&gt;attr.&lt;/font&gt;&lt;/div&gt;" style="edgeStyle=orthogonalEdgeStyle;rounded=0;html=1;exitX=0.5;exitY=1;exitDx=0;exitDy=0;entryX=0.5;entryY=0;entryDx=0;entryDy=0;strokeWidth=0.4;fontSize=9;fontColor=default;endArrow=none;endFill=0;align=left;fontFamily=CMU Sans Serif;" parent="1" source="jUSs1SHOjHuWD_IhhnA5-272" target="jUSs1SHOjHuWD_IhhnA5-279" edge="1">
          <mxGeometry x="-0.1429" y="10" relative="1" as="geometry">
            <mxPoint as="offset" />
          </mxGeometry>
        </mxCell>
        <mxCell id="jUSs1SHOjHuWD_IhhnA5-272" value="&lt;font style=&quot;font-size: 11px;&quot;&gt;distance&lt;/font&gt;&lt;div&gt;&lt;font style=&quot;font-size: 9px;&quot;&gt;[km]&lt;/font&gt;&lt;/div&gt;" style="rounded=0;whiteSpace=wrap;html=1;fontFamily=CMU Sans Serif;strokeWidth=0.4;verticalAlign=top;" parent="1" vertex="1">
          <mxGeometry x="290" y="470" width="60" height="40" as="geometry" />
        </mxCell>
        <mxCell id="jUSs1SHOjHuWD_IhhnA5-273" style="edgeStyle=orthogonalEdgeStyle;rounded=0;html=1;entryX=0.5;entryY=0;entryDx=0;entryDy=0;strokeWidth=0.4;fontSize=10;fontColor=default;endArrow=none;endFill=0;fontFamily=CMU Sans Serif;" parent="1" source="jUSs1SHOjHuWD_IhhnA5-275" target="jUSs1SHOjHuWD_IhhnA5-280" edge="1">
          <mxGeometry relative="1" as="geometry" />
        </mxCell>
        <mxCell id="jUSs1SHOjHuWD_IhhnA5-274" value="&lt;font style=&quot;font-size: 9px;&quot;&gt;object&lt;br style=&quot;font-size: 9px;&quot;&gt;attr.&lt;/font&gt;" style="edgeLabel;html=1;align=right;verticalAlign=middle;resizable=0;points=[];fontSize=9;fontColor=default;fontFamily=CMU Sans Serif;" parent="jUSs1SHOjHuWD_IhhnA5-273" vertex="1" connectable="0">
          <mxGeometry x="-0.2762" y="2" relative="1" as="geometry">
            <mxPoint x="-12" y="5" as="offset" />
          </mxGeometry>
        </mxCell>
        <mxCell id="jUSs1SHOjHuWD_IhhnA5-275" value="&lt;font style=&quot;font-size: 11px;&quot;&gt;consumpt&lt;/font&gt;.&lt;br&gt;&lt;font style=&quot;font-size: 9px;&quot;&gt;[L/km]&lt;/font&gt;" style="rounded=0;whiteSpace=wrap;html=1;fontFamily=CMU Sans Serif;strokeWidth=0.4;verticalAlign=top;" parent="1" vertex="1">
          <mxGeometry x="210" y="470" width="60" height="40" as="geometry" />
        </mxCell>
        <mxCell id="jUSs1SHOjHuWD_IhhnA5-276" value="&lt;font style=&quot;font-size: 9px;&quot;&gt;&amp;lt;qualifier&amp;gt;&lt;/font&gt;" style="edgeStyle=orthogonalEdgeStyle;rounded=0;html=1;exitX=0.75;exitY=0;exitDx=0;exitDy=0;strokeWidth=0.4;fontSize=9;fontColor=default;endArrow=none;endFill=0;dashed=1;startArrow=none;startFill=0;entryX=0.25;entryY=0;entryDx=0;entryDy=0;fontFamily=CMU Sans Serif;dashPattern=8 8;" parent="1" source="jUSs1SHOjHuWD_IhhnA5-280" target="jUSs1SHOjHuWD_IhhnA5-279" edge="1">
          <mxGeometry x="0.0049" y="10" relative="1" as="geometry">
            <mxPoint as="offset" />
            <mxPoint x="255" y="570" as="sourcePoint" />
            <mxPoint x="305" y="570" as="targetPoint" />
            <Array as="points">
              <mxPoint x="255" y="560" />
              <mxPoint x="305" y="560" />
            </Array>
          </mxGeometry>
        </mxCell>
        <mxCell id="jUSs1SHOjHuWD_IhhnA5-277" value="1" style="edgeLabel;html=1;align=left;verticalAlign=middle;resizable=0;points=[];fontSize=9;fontFamily=CMU Sans Serif;" parent="jUSs1SHOjHuWD_IhhnA5-276" vertex="1" connectable="0">
          <mxGeometry x="-0.8169" y="-1" relative="1" as="geometry">
            <mxPoint x="4" y="-2" as="offset" />
          </mxGeometry>
        </mxCell>
        <mxCell id="jUSs1SHOjHuWD_IhhnA5-278" value="n" style="edgeLabel;html=1;align=right;verticalAlign=middle;resizable=0;points=[];fontSize=9;fontFamily=CMU Sans Serif;" parent="jUSs1SHOjHuWD_IhhnA5-276" vertex="1" connectable="0">
          <mxGeometry x="0.7958" y="2" relative="1" as="geometry">
            <mxPoint x="-7" y="-1" as="offset" />
          </mxGeometry>
        </mxCell>
        <mxCell id="jUSs1SHOjHuWD_IhhnA5-279" value="&lt;font style=&quot;&quot;&gt;&lt;i style=&quot;&quot;&gt;&lt;font style=&quot;font-size: 11px;&quot;&gt;deliver&lt;/font&gt;&lt;/i&gt;&lt;br&gt;&lt;font style=&quot;font-size: 9px;&quot;&gt;(event)&lt;/font&gt;&lt;br&gt;&lt;/font&gt;" style="rounded=0;whiteSpace=wrap;html=1;labelBackgroundColor=none;fontSize=8;fontColor=default;fontFamily=CMU Sans Serif;strokeWidth=0.4;verticalAlign=top;" parent="1" vertex="1">
          <mxGeometry x="290" y="580" width="60" height="40" as="geometry" />
        </mxCell>
        <mxCell id="jUSs1SHOjHuWD_IhhnA5-280" value="&lt;font style=&quot;&quot;&gt;&lt;font style=&quot;font-size: 11px;&quot;&gt;Vehicle&lt;/font&gt;&lt;br&gt;&lt;font style=&quot;font-size: 9px;&quot;&gt;(object)&lt;/font&gt;&lt;br&gt;&lt;/font&gt;" style="rounded=0;whiteSpace=wrap;html=1;labelBackgroundColor=none;fontSize=8;fontColor=default;fontFamily=CMU Sans Serif;strokeWidth=0.4;verticalAlign=top;" parent="1" vertex="1">
          <mxGeometry x="210" y="580" width="60" height="40" as="geometry" />
        </mxCell>
        <mxCell id="jUSs1SHOjHuWD_IhhnA5-281" value="" style="sketch=0;outlineConnect=0;dashed=0;verticalLabelPosition=bottom;verticalAlign=top;align=center;html=1;fontSize=12;fontStyle=0;aspect=fixed;shape=mxgraph.aws4.location_service_routes;labelBackgroundColor=none;fillColor=#231F20;strokeColor=none;fontFamily=CMU Sans Serif;strokeWidth=1;" parent="1" vertex="1">
          <mxGeometry x="357.5" y="587.5" width="25" height="25" as="geometry" />
        </mxCell>
        <mxCell id="jUSs1SHOjHuWD_IhhnA5-282" value="&lt;font style=&quot;font-size: 9px;&quot;&gt;event&lt;br style=&quot;font-size: 9px;&quot;&gt;attr.&lt;/font&gt;" style="edgeStyle=orthogonalEdgeStyle;rounded=0;html=1;exitX=0.5;exitY=1;exitDx=0;exitDy=0;entryX=0.75;entryY=0;entryDx=0;entryDy=0;strokeWidth=0.4;fontSize=9;fontColor=default;endArrow=classic;endFill=1;align=left;fontFamily=CMU Sans Serif;" parent="1" source="jUSs1SHOjHuWD_IhhnA5-283" target="jUSs1SHOjHuWD_IhhnA5-279" edge="1">
          <mxGeometry x="-0.5862" y="10" relative="1" as="geometry">
            <mxPoint x="200" y="600" as="targetPoint" />
            <mxPoint as="offset" />
            <Array as="points">
              <mxPoint x="410" y="560" />
              <mxPoint x="335" y="560" />
            </Array>
          </mxGeometry>
        </mxCell>
        <mxCell id="jUSs1SHOjHuWD_IhhnA5-283" value="&lt;font style=&quot;&quot;&gt;&lt;font style=&quot;font-size: 11px;&quot;&gt;Emissions&lt;/font&gt;&lt;br style=&quot;font-size: 11px;&quot;&gt;&lt;font style=&quot;font-size: 9px;&quot;&gt;[kgCO&lt;sub style=&quot;&quot;&gt;2&lt;/sub&gt;e]&lt;/font&gt;&lt;br style=&quot;font-size: 11px;&quot;&gt;&lt;/font&gt;" style="rounded=0;whiteSpace=wrap;html=1;fontFamily=CMU Sans Serif;strokeWidth=0.4;fontSize=11;verticalAlign=top;" parent="1" vertex="1">
          <mxGeometry x="380" y="470" width="60" height="40" as="geometry" />
        </mxCell>
        <mxCell id="jUSs1SHOjHuWD_IhhnA5-284" value="&lt;span style=&quot;font-size: 12px;&quot;&gt;×&lt;/span&gt;" style="text;html=1;strokeColor=none;fillColor=none;align=center;verticalAlign=middle;whiteSpace=wrap;rounded=0;labelBackgroundColor=none;fontSize=9;fontColor=default;fontFamily=CMU Sans Serif;" parent="1" vertex="1">
          <mxGeometry x="190" y="470" width="20" height="40" as="geometry" />
        </mxCell>
        <mxCell id="jUSs1SHOjHuWD_IhhnA5-285" value="&lt;span style=&quot;font-size: 12px;&quot;&gt;×&lt;/span&gt;" style="text;html=1;strokeColor=none;fillColor=none;align=center;verticalAlign=middle;whiteSpace=wrap;rounded=0;labelBackgroundColor=none;fontSize=9;fontColor=default;fontFamily=CMU Sans Serif;" parent="1" vertex="1">
          <mxGeometry x="270" y="470" width="20" height="40" as="geometry" />
        </mxCell>
        <mxCell id="jUSs1SHOjHuWD_IhhnA5-286" value="&lt;span style=&quot;font-size: 12px;&quot;&gt;=&lt;/span&gt;" style="text;html=1;strokeColor=none;fillColor=none;align=center;verticalAlign=middle;whiteSpace=wrap;rounded=0;labelBackgroundColor=none;fontSize=9;fontColor=default;fontFamily=CMU Sans Serif;" parent="1" vertex="1">
          <mxGeometry x="360" y="470" width="20" height="40" as="geometry" />
        </mxCell>
        <mxCell id="jUSs1SHOjHuWD_IhhnA5-287" value="&lt;font style=&quot;font-size: 11px;&quot;&gt;Event emission rule&lt;/font&gt;" style="text;html=1;strokeColor=none;fillColor=none;align=center;verticalAlign=middle;whiteSpace=wrap;rounded=0;labelBackgroundColor=none;fontSize=8;fontColor=default;fontFamily=CMU Sans Serif;" parent="1" vertex="1">
          <mxGeometry x="120" y="440" width="240" height="20" as="geometry" />
        </mxCell>
        <mxCell id="jUSs1SHOjHuWD_IhhnA5-290" value="" style="shape=mxgraph.signs.transportation.truck_1;html=1;pointerEvents=1;fillColor=#40bfbc;strokeColor=default;verticalLabelPosition=bottom;verticalAlign=top;align=center;labelBackgroundColor=none;fontSize=8;fontColor=default;strokeWidth=0.4;fillOpacity=100;" parent="1" vertex="1">
          <mxGeometry x="165.00000000000017" y="589" width="38.83" height="20" as="geometry" />
        </mxCell>
        <mxCell id="Bw2Pz7w6a_ptfYuUT3BN-278" value="" style="rounded=0;whiteSpace=wrap;html=1;labelBackgroundColor=none;strokeColor=default;fontSize=9;fontColor=default;fillColor=#F0F0F0;fontFamily=CMU Sans Serif;strokeWidth=0.4;" parent="1" vertex="1">
          <mxGeometry x="120" y="690" width="240" height="60" as="geometry" />
        </mxCell>
        <mxCell id="Bw2Pz7w6a_ptfYuUT3BN-279" value="&lt;font style=&quot;font-size: 11px;&quot;&gt;0.5676&lt;/font&gt;&lt;br&gt;&lt;font style=&quot;font-size: 9px;&quot;&gt;kgCO&lt;sub&gt;2&lt;/sub&gt;e / tkm&lt;/font&gt;" style="rounded=0;whiteSpace=wrap;html=1;fontFamily=CMU Sans Serif;strokeWidth=0.4;verticalAlign=top;" parent="1" vertex="1">
          <mxGeometry x="130" y="700" width="60" height="40" as="geometry" />
        </mxCell>
        <mxCell id="Bw2Pz7w6a_ptfYuUT3BN-280" value="&lt;font style=&quot;font-size: 9px;&quot;&gt;event&lt;br style=&quot;font-size: 9px;&quot;&gt;&lt;/font&gt;&lt;div style=&quot;font-size: 9px;&quot;&gt;&lt;font style=&quot;font-size: 9px;&quot;&gt;attr.&lt;/font&gt;&lt;/div&gt;" style="edgeStyle=orthogonalEdgeStyle;rounded=0;html=1;exitX=0.5;exitY=1;exitDx=0;exitDy=0;entryX=0.5;entryY=0;entryDx=0;entryDy=0;strokeWidth=0.4;fontSize=9;fontColor=default;endArrow=none;endFill=0;align=left;fontFamily=CMU Sans Serif;" parent="1" source="Bw2Pz7w6a_ptfYuUT3BN-281" target="Bw2Pz7w6a_ptfYuUT3BN-288" edge="1">
          <mxGeometry x="-0.1429" y="10" relative="1" as="geometry">
            <mxPoint as="offset" />
          </mxGeometry>
        </mxCell>
        <mxCell id="Bw2Pz7w6a_ptfYuUT3BN-281" value="&lt;font style=&quot;font-size: 11px;&quot;&gt;distance&lt;/font&gt;&lt;div&gt;&lt;font style=&quot;font-size: 9px;&quot;&gt;[km]&lt;/font&gt;&lt;/div&gt;" style="rounded=0;whiteSpace=wrap;html=1;fontFamily=CMU Sans Serif;strokeWidth=0.4;verticalAlign=top;" parent="1" vertex="1">
          <mxGeometry x="290" y="700" width="60" height="40" as="geometry" />
        </mxCell>
        <mxCell id="Bw2Pz7w6a_ptfYuUT3BN-282" style="edgeStyle=orthogonalEdgeStyle;rounded=0;html=1;entryX=0.5;entryY=0;entryDx=0;entryDy=0;strokeWidth=0.4;fontSize=10;fontColor=default;endArrow=none;endFill=0;fontFamily=CMU Sans Serif;" parent="1" source="Bw2Pz7w6a_ptfYuUT3BN-284" target="Bw2Pz7w6a_ptfYuUT3BN-289" edge="1">
          <mxGeometry relative="1" as="geometry" />
        </mxCell>
        <mxCell id="Bw2Pz7w6a_ptfYuUT3BN-283" value="&lt;font style=&quot;font-size: 9px;&quot;&gt;object&lt;br style=&quot;font-size: 9px;&quot;&gt;attr.&lt;/font&gt;" style="edgeLabel;html=1;align=right;verticalAlign=middle;resizable=0;points=[];fontSize=9;fontColor=default;fontFamily=CMU Sans Serif;" parent="Bw2Pz7w6a_ptfYuUT3BN-282" vertex="1" connectable="0">
          <mxGeometry x="-0.2762" y="2" relative="1" as="geometry">
            <mxPoint x="-12" y="5" as="offset" />
          </mxGeometry>
        </mxCell>
        <mxCell id="Bw2Pz7w6a_ptfYuUT3BN-319" value="" style="group" parent="1" vertex="1" connectable="0">
          <mxGeometry x="210" y="696" width="64" height="44" as="geometry" />
        </mxCell>
        <mxCell id="Bw2Pz7w6a_ptfYuUT3BN-314" value="" style="rounded=0;whiteSpace=wrap;html=1;fontFamily=CMU Sans Serif;strokeWidth=0.4;verticalAlign=top;fillOpacity=100;strokeColor=none;" parent="Bw2Pz7w6a_ptfYuUT3BN-319" vertex="1">
          <mxGeometry y="4" width="60" height="40" as="geometry" />
        </mxCell>
        <mxCell id="Bw2Pz7w6a_ptfYuUT3BN-317" value="" style="rounded=0;whiteSpace=wrap;html=1;fontFamily=CMU Sans Serif;strokeWidth=0.4;verticalAlign=top;fillOpacity=100;strokeColor=none;" parent="Bw2Pz7w6a_ptfYuUT3BN-319" vertex="1">
          <mxGeometry x="2" y="2" width="60" height="40" as="geometry" />
        </mxCell>
        <mxCell id="Bw2Pz7w6a_ptfYuUT3BN-318" value="" style="rounded=0;whiteSpace=wrap;html=1;fontFamily=CMU Sans Serif;strokeWidth=0.4;verticalAlign=top;fillOpacity=100;strokeColor=none;" parent="Bw2Pz7w6a_ptfYuUT3BN-319" vertex="1">
          <mxGeometry x="4" width="60" height="40" as="geometry" />
        </mxCell>
        <mxCell id="Bw2Pz7w6a_ptfYuUT3BN-304" value="" style="rounded=0;whiteSpace=wrap;html=1;fontFamily=CMU Sans Serif;strokeWidth=0.4;verticalAlign=top;fillOpacity=50;" parent="1" vertex="1">
          <mxGeometry x="214" y="696" width="60" height="40" as="geometry" />
        </mxCell>
        <mxCell id="Bw2Pz7w6a_ptfYuUT3BN-303" value="" style="rounded=0;whiteSpace=wrap;html=1;fontFamily=CMU Sans Serif;strokeWidth=0.4;verticalAlign=top;fillOpacity=50;" parent="1" vertex="1">
          <mxGeometry x="212" y="698" width="60" height="40" as="geometry" />
        </mxCell>
        <mxCell id="Bw2Pz7w6a_ptfYuUT3BN-285" value="&lt;font style=&quot;font-size: 9px;&quot;&gt;&amp;lt;qualifier&amp;gt;&lt;/font&gt;" style="edgeStyle=orthogonalEdgeStyle;rounded=0;html=1;exitX=0.75;exitY=0;exitDx=0;exitDy=0;strokeWidth=0.4;fontSize=9;fontColor=default;endArrow=none;endFill=0;dashed=1;startArrow=none;startFill=0;entryX=0.25;entryY=0;entryDx=0;entryDy=0;fontFamily=CMU Sans Serif;dashPattern=8 8;" parent="1" source="Bw2Pz7w6a_ptfYuUT3BN-289" target="Bw2Pz7w6a_ptfYuUT3BN-288" edge="1">
          <mxGeometry x="0.0049" y="10" relative="1" as="geometry">
            <mxPoint as="offset" />
            <mxPoint x="255" y="800" as="sourcePoint" />
            <mxPoint x="305" y="800" as="targetPoint" />
            <Array as="points">
              <mxPoint x="255" y="790" />
              <mxPoint x="305" y="790" />
            </Array>
          </mxGeometry>
        </mxCell>
        <mxCell id="Bw2Pz7w6a_ptfYuUT3BN-286" value="m" style="edgeLabel;html=1;align=left;verticalAlign=middle;resizable=0;points=[];fontSize=9;fontFamily=CMU Sans Serif;labelBackgroundColor=none;" parent="Bw2Pz7w6a_ptfYuUT3BN-285" vertex="1" connectable="0">
          <mxGeometry x="-0.8169" y="-1" relative="1" as="geometry">
            <mxPoint x="4" y="-2" as="offset" />
          </mxGeometry>
        </mxCell>
        <mxCell id="Bw2Pz7w6a_ptfYuUT3BN-287" value="n" style="edgeLabel;html=1;align=right;verticalAlign=middle;resizable=0;points=[];fontSize=9;fontFamily=CMU Sans Serif;" parent="Bw2Pz7w6a_ptfYuUT3BN-285" vertex="1" connectable="0">
          <mxGeometry x="0.7958" y="2" relative="1" as="geometry">
            <mxPoint x="-7" y="-1" as="offset" />
          </mxGeometry>
        </mxCell>
        <mxCell id="Bw2Pz7w6a_ptfYuUT3BN-311" style="edgeStyle=orthogonalEdgeStyle;rounded=0;html=1;entryX=0.5;entryY=0;entryDx=0;entryDy=0;strokeWidth=0.4;fontSize=10;fontColor=default;endArrow=none;endFill=0;fontFamily=CMU Sans Serif;exitX=0.5;exitY=1;exitDx=0;exitDy=0;" parent="1" source="Bw2Pz7w6a_ptfYuUT3BN-304" target="Bw2Pz7w6a_ptfYuUT3BN-302" edge="1">
          <mxGeometry relative="1" as="geometry">
            <mxPoint x="251.5" y="748" as="sourcePoint" />
            <mxPoint x="251.5" y="818" as="targetPoint" />
          </mxGeometry>
        </mxCell>
        <mxCell id="Bw2Pz7w6a_ptfYuUT3BN-288" value="&lt;font style=&quot;&quot;&gt;&lt;i style=&quot;&quot;&gt;&lt;font style=&quot;font-size: 11px;&quot;&gt;ship&lt;/font&gt;&lt;/i&gt;&lt;br&gt;&lt;font style=&quot;font-size: 9px;&quot;&gt;(event)&lt;/font&gt;&lt;br&gt;&lt;/font&gt;" style="rounded=0;whiteSpace=wrap;html=1;labelBackgroundColor=none;fontSize=8;fontColor=default;fontFamily=CMU Sans Serif;strokeWidth=0.4;verticalAlign=top;" parent="1" vertex="1">
          <mxGeometry x="290" y="810" width="60" height="40" as="geometry" />
        </mxCell>
        <mxCell id="Bw2Pz7w6a_ptfYuUT3BN-308" style="edgeStyle=orthogonalEdgeStyle;rounded=0;html=1;entryX=0.5;entryY=0;entryDx=0;entryDy=0;strokeWidth=0.4;fontSize=10;fontColor=default;endArrow=none;endFill=0;fontFamily=CMU Sans Serif;exitX=0.5;exitY=1;exitDx=0;exitDy=0;" parent="1" source="Bw2Pz7w6a_ptfYuUT3BN-303" target="Bw2Pz7w6a_ptfYuUT3BN-301" edge="1">
          <mxGeometry relative="1" as="geometry">
            <mxPoint x="250.5" y="750" as="sourcePoint" />
            <mxPoint x="250.5" y="820" as="targetPoint" />
          </mxGeometry>
        </mxCell>
        <mxCell id="Bw2Pz7w6a_ptfYuUT3BN-289" value="&lt;font style=&quot;&quot;&gt;&lt;font style=&quot;font-size: 11px;&quot;&gt;Package&lt;/font&gt;&lt;br&gt;&lt;font style=&quot;font-size: 9px;&quot;&gt;(object)&lt;/font&gt;&lt;br&gt;&lt;/font&gt;" style="rounded=0;whiteSpace=wrap;html=1;labelBackgroundColor=none;fontSize=8;fontColor=default;fontFamily=CMU Sans Serif;strokeWidth=0.4;verticalAlign=top;fillOpacity=50;" parent="1" vertex="1">
          <mxGeometry x="210" y="810" width="60" height="40" as="geometry" />
        </mxCell>
        <mxCell id="Bw2Pz7w6a_ptfYuUT3BN-284" value="&lt;font style=&quot;font-size: 11px;&quot;&gt;weight&lt;/font&gt;&lt;br&gt;&lt;font style=&quot;font-size: 9px;&quot;&gt;[kg]&lt;/font&gt;" style="rounded=0;whiteSpace=wrap;html=1;fontFamily=CMU Sans Serif;strokeWidth=0.4;verticalAlign=top;fillOpacity=50;" parent="1" vertex="1">
          <mxGeometry x="210" y="700" width="60" height="40" as="geometry" />
        </mxCell>
        <mxCell id="Bw2Pz7w6a_ptfYuUT3BN-290" value="" style="sketch=0;outlineConnect=0;dashed=0;verticalLabelPosition=bottom;verticalAlign=top;align=center;html=1;fontSize=12;fontStyle=0;aspect=fixed;shape=mxgraph.aws4.location_service_routes;labelBackgroundColor=none;fillColor=#231F20;strokeColor=none;fontFamily=CMU Sans Serif;strokeWidth=1;" parent="1" vertex="1">
          <mxGeometry x="357.5" y="817.5" width="25" height="25" as="geometry" />
        </mxCell>
        <mxCell id="Bw2Pz7w6a_ptfYuUT3BN-293" value="&lt;span style=&quot;font-size: 12px;&quot;&gt;×&lt;/span&gt;" style="text;html=1;strokeColor=none;fillColor=none;align=center;verticalAlign=middle;whiteSpace=wrap;rounded=0;labelBackgroundColor=none;fontSize=9;fontColor=default;fontFamily=CMU Sans Serif;" parent="1" vertex="1">
          <mxGeometry x="190" y="700" width="20" height="40" as="geometry" />
        </mxCell>
        <mxCell id="Bw2Pz7w6a_ptfYuUT3BN-294" value="&lt;span style=&quot;font-size: 12px;&quot;&gt;×&lt;/span&gt;" style="text;html=1;strokeColor=none;fillColor=none;align=center;verticalAlign=middle;whiteSpace=wrap;rounded=0;labelBackgroundColor=none;fontSize=9;fontColor=default;fontFamily=CMU Sans Serif;" parent="1" vertex="1">
          <mxGeometry x="270" y="700" width="20" height="40" as="geometry" />
        </mxCell>
        <mxCell id="Bw2Pz7w6a_ptfYuUT3BN-295" value="&lt;span style=&quot;font-size: 12px;&quot;&gt;=&lt;/span&gt;" style="text;html=1;strokeColor=none;fillColor=none;align=center;verticalAlign=middle;whiteSpace=wrap;rounded=0;labelBackgroundColor=none;fontSize=9;fontColor=default;fontFamily=CMU Sans Serif;" parent="1" vertex="1">
          <mxGeometry x="360" y="700" width="20" height="40" as="geometry" />
        </mxCell>
        <mxCell id="Bw2Pz7w6a_ptfYuUT3BN-296" value="&lt;font style=&quot;font-size: 11px;&quot;&gt;E2O emission rule&lt;/font&gt;" style="text;html=1;strokeColor=none;fillColor=none;align=center;verticalAlign=middle;whiteSpace=wrap;rounded=0;labelBackgroundColor=none;fontSize=8;fontColor=default;fontFamily=CMU Sans Serif;" parent="1" vertex="1">
          <mxGeometry x="120" y="670" width="240" height="20" as="geometry" />
        </mxCell>
        <mxCell id="Bw2Pz7w6a_ptfYuUT3BN-306" value="&lt;font style=&quot;&quot;&gt;&lt;br style=&quot;font-size: 11px;&quot;&gt;&lt;/font&gt;" style="rounded=0;whiteSpace=wrap;html=1;fontFamily=CMU Sans Serif;strokeWidth=0.4;fontSize=11;verticalAlign=top;" parent="1" vertex="1">
          <mxGeometry x="384" y="696" width="60" height="40" as="geometry" />
        </mxCell>
        <mxCell id="Bw2Pz7w6a_ptfYuUT3BN-305" value="&lt;font style=&quot;&quot;&gt;&lt;br style=&quot;font-size: 11px;&quot;&gt;&lt;/font&gt;" style="rounded=0;whiteSpace=wrap;html=1;fontFamily=CMU Sans Serif;strokeWidth=0.4;fontSize=11;verticalAlign=top;" parent="1" vertex="1">
          <mxGeometry x="382" y="698" width="60" height="40" as="geometry" />
        </mxCell>
        <mxCell id="Bw2Pz7w6a_ptfYuUT3BN-292" value="&lt;font style=&quot;&quot;&gt;&lt;font style=&quot;font-size: 11px;&quot;&gt;Emissions&lt;/font&gt;&lt;br style=&quot;font-size: 11px;&quot;&gt;&lt;font style=&quot;font-size: 9px;&quot;&gt;[kgCO&lt;sub style=&quot;&quot;&gt;2&lt;/sub&gt;e]&lt;/font&gt;&lt;br style=&quot;font-size: 11px;&quot;&gt;&lt;/font&gt;" style="rounded=0;whiteSpace=wrap;html=1;fontFamily=CMU Sans Serif;strokeWidth=0.4;fontSize=11;verticalAlign=top;" parent="1" vertex="1">
          <mxGeometry x="380" y="700" width="60" height="40" as="geometry" />
        </mxCell>
        <mxCell id="Bw2Pz7w6a_ptfYuUT3BN-307" value="0.5676 kgCO2e/tkm&lt;br&gt;climatiq ID 67220ec8-0e38-4553-839c-07e45932da9b&lt;br&gt;&lt;span class=&quot;mr-2 group-hover:text-brand&quot;&gt;Diesel van (1.74 to 3.5 tonnes)&lt;br&gt;&lt;/span&gt;&lt;span style=&quot;font-family: var(--monaco-monospace-font);&quot;&gt;LCA:&amp;nbsp;&lt;/span&gt;&lt;span style=&quot;background-color: initial;&quot;&gt;fuel_combustion&lt;/span&gt;&lt;div&gt;&lt;span style=&quot;background-color: initial;&quot;&gt;&lt;br&gt;&lt;/span&gt;&lt;/div&gt;&lt;div&gt;&lt;span style=&quot;background-color: initial;&quot;&gt;CAUTION:&lt;/span&gt;&lt;/div&gt;&lt;div&gt;&lt;span style=&quot;background-color: initial;&quot;&gt;Cannot compute sum of multiple E2O emissons,&lt;br&gt;tkm input seems to refer to pure cargo weight.&lt;/span&gt;&lt;/div&gt;&lt;div&gt;&lt;span style=&quot;background-color: initial;&quot;&gt;-&amp;gt; Contribution of vehicle tare weight would be counted twice&lt;/span&gt;&lt;/div&gt;" style="text;html=1;strokeColor=none;fillColor=none;align=left;verticalAlign=middle;whiteSpace=wrap;rounded=0;labelBackgroundColor=none;fontColor=default;" parent="1" vertex="1">
          <mxGeometry x="502.75" y="735.5" width="337.25" height="70" as="geometry" />
        </mxCell>
        <mxCell id="Bw2Pz7w6a_ptfYuUT3BN-298" value="" style="verticalLabelPosition=bottom;html=1;verticalAlign=top;align=center;strokeColor=default;fillColor=#fab23f;shape=mxgraph.azure.cloud_service_package_file;strokeWidth=0.4;flipH=1;fillOpacity=100;" parent="1" vertex="1">
          <mxGeometry x="171.67" y="812.5" width="25.5" height="30" as="geometry" />
        </mxCell>
        <mxCell id="Bw2Pz7w6a_ptfYuUT3BN-299" value="" style="verticalLabelPosition=bottom;html=1;verticalAlign=top;align=center;strokeColor=default;fillColor=#fab23f;shape=mxgraph.azure.cloud_service_package_file;strokeWidth=0.4;flipH=0;fillOpacity=100;" parent="1" vertex="1">
          <mxGeometry x="160.5" y="824.26" width="19.33" height="22.74" as="geometry" />
        </mxCell>
        <mxCell id="Bw2Pz7w6a_ptfYuUT3BN-300" value="" style="verticalLabelPosition=bottom;html=1;verticalAlign=top;align=center;strokeColor=default;fillColor=#fab23f;shape=mxgraph.azure.cloud_service_package_file;strokeWidth=0.4;fillOpacity=100;" parent="1" vertex="1">
          <mxGeometry x="190.5" y="829" width="14.45" height="17" as="geometry" />
        </mxCell>
        <mxCell id="Bw2Pz7w6a_ptfYuUT3BN-320" value="" style="rounded=0;whiteSpace=wrap;html=1;fillColor=none;strokeColor=none;fontFamily=CMU Sans Serif;" parent="1" vertex="1">
          <mxGeometry x="-15.5" y="880" width="591" height="181" as="geometry" />
        </mxCell>
        <mxCell id="Bw2Pz7w6a_ptfYuUT3BN-321" value="&lt;font style=&quot;&quot;&gt;&lt;br&gt;&lt;/font&gt;" style="rounded=0;whiteSpace=wrap;html=1;labelBackgroundColor=none;fontSize=8;fontColor=default;fontFamily=CMU Sans Serif;strokeWidth=0.4;verticalAlign=top;fillOpacity=50;" parent="1" vertex="1">
          <mxGeometry x="214" y="1016" width="60" height="40" as="geometry" />
        </mxCell>
        <mxCell id="Bw2Pz7w6a_ptfYuUT3BN-322" value="&lt;font style=&quot;&quot;&gt;&lt;br&gt;&lt;/font&gt;" style="rounded=0;whiteSpace=wrap;html=1;labelBackgroundColor=none;fontSize=8;fontColor=default;fontFamily=CMU Sans Serif;strokeWidth=0.4;verticalAlign=top;fillOpacity=50;" parent="1" vertex="1">
          <mxGeometry x="212" y="1018" width="60" height="40" as="geometry" />
        </mxCell>
        <mxCell id="Bw2Pz7w6a_ptfYuUT3BN-323" value="" style="rounded=0;whiteSpace=wrap;html=1;labelBackgroundColor=none;strokeColor=default;fontSize=9;fontColor=default;fillColor=#F0F0F0;fontFamily=CMU Sans Serif;strokeWidth=0.4;" parent="1" vertex="1">
          <mxGeometry x="120" y="900" width="240" height="60" as="geometry" />
        </mxCell>
        <mxCell id="Bw2Pz7w6a_ptfYuUT3BN-324" value="&lt;font style=&quot;font-size: 11px;&quot;&gt;0.0588&lt;/font&gt;&lt;br&gt;&lt;font style=&quot;font-size: 9px;&quot;&gt;kgCO&lt;sub&gt;2&lt;/sub&gt;e / pkm&lt;/font&gt;" style="rounded=0;whiteSpace=wrap;html=1;fontFamily=CMU Sans Serif;strokeWidth=0.4;verticalAlign=top;" parent="1" vertex="1">
          <mxGeometry x="130" y="910" width="60" height="40" as="geometry" />
        </mxCell>
        <mxCell id="Bw2Pz7w6a_ptfYuUT3BN-325" value="&lt;font style=&quot;font-size: 9px;&quot;&gt;event&lt;br style=&quot;font-size: 9px;&quot;&gt;&lt;/font&gt;&lt;div style=&quot;font-size: 9px;&quot;&gt;&lt;font style=&quot;font-size: 9px;&quot;&gt;attr.&lt;/font&gt;&lt;/div&gt;" style="edgeStyle=orthogonalEdgeStyle;rounded=0;html=1;exitX=0.5;exitY=1;exitDx=0;exitDy=0;entryX=0.5;entryY=0;entryDx=0;entryDy=0;strokeWidth=0.4;fontSize=9;fontColor=default;endArrow=none;endFill=0;align=left;fontFamily=CMU Sans Serif;" parent="1" source="Bw2Pz7w6a_ptfYuUT3BN-326" target="Bw2Pz7w6a_ptfYuUT3BN-339" edge="1">
          <mxGeometry x="-0.1429" y="10" relative="1" as="geometry">
            <mxPoint as="offset" />
          </mxGeometry>
        </mxCell>
        <mxCell id="Bw2Pz7w6a_ptfYuUT3BN-326" value="&lt;font style=&quot;font-size: 11px;&quot;&gt;distance&lt;/font&gt;&lt;div&gt;&lt;font style=&quot;font-size: 9px;&quot;&gt;[km]&lt;/font&gt;&lt;/div&gt;" style="rounded=0;whiteSpace=wrap;html=1;fontFamily=CMU Sans Serif;strokeWidth=0.4;verticalAlign=top;" parent="1" vertex="1">
          <mxGeometry x="290" y="910" width="60" height="40" as="geometry" />
        </mxCell>
        <mxCell id="Bw2Pz7w6a_ptfYuUT3BN-327" style="edgeStyle=orthogonalEdgeStyle;rounded=0;html=1;entryX=0.5;entryY=0;entryDx=0;entryDy=0;strokeWidth=0.4;fontSize=10;fontColor=default;endArrow=none;endFill=0;fontFamily=CMU Sans Serif;" parent="1" source="Bw2Pz7w6a_ptfYuUT3BN-342" target="Bw2Pz7w6a_ptfYuUT3BN-341" edge="1">
          <mxGeometry relative="1" as="geometry" />
        </mxCell>
        <mxCell id="Bw2Pz7w6a_ptfYuUT3BN-329" value="" style="group" parent="1" vertex="1" connectable="0">
          <mxGeometry x="210" y="906" width="64" height="44" as="geometry" />
        </mxCell>
        <mxCell id="Bw2Pz7w6a_ptfYuUT3BN-330" value="" style="rounded=0;whiteSpace=wrap;html=1;fontFamily=CMU Sans Serif;strokeWidth=0.4;verticalAlign=top;fillOpacity=100;strokeColor=none;" parent="Bw2Pz7w6a_ptfYuUT3BN-329" vertex="1">
          <mxGeometry y="4" width="60" height="40" as="geometry" />
        </mxCell>
        <mxCell id="Bw2Pz7w6a_ptfYuUT3BN-331" value="" style="rounded=0;whiteSpace=wrap;html=1;fontFamily=CMU Sans Serif;strokeWidth=0.4;verticalAlign=top;fillOpacity=100;strokeColor=none;" parent="Bw2Pz7w6a_ptfYuUT3BN-329" vertex="1">
          <mxGeometry x="2" y="2" width="60" height="40" as="geometry" />
        </mxCell>
        <mxCell id="Bw2Pz7w6a_ptfYuUT3BN-332" value="" style="rounded=0;whiteSpace=wrap;html=1;fontFamily=CMU Sans Serif;strokeWidth=0.4;verticalAlign=top;fillOpacity=100;strokeColor=none;" parent="Bw2Pz7w6a_ptfYuUT3BN-329" vertex="1">
          <mxGeometry x="4" width="60" height="40" as="geometry" />
        </mxCell>
        <mxCell id="Bw2Pz7w6a_ptfYuUT3BN-333" value="" style="rounded=0;whiteSpace=wrap;html=1;fontFamily=CMU Sans Serif;strokeWidth=0.4;verticalAlign=top;fillOpacity=50;" parent="1" vertex="1">
          <mxGeometry x="214" y="906" width="60" height="40" as="geometry" />
        </mxCell>
        <mxCell id="Bw2Pz7w6a_ptfYuUT3BN-334" value="" style="rounded=0;whiteSpace=wrap;html=1;fontFamily=CMU Sans Serif;strokeWidth=0.4;verticalAlign=top;fillOpacity=50;" parent="1" vertex="1">
          <mxGeometry x="212" y="908" width="60" height="40" as="geometry" />
        </mxCell>
        <mxCell id="Bw2Pz7w6a_ptfYuUT3BN-335" value="&lt;font style=&quot;font-size: 9px;&quot;&gt;&amp;lt;qualifier&amp;gt;&lt;/font&gt;" style="edgeStyle=orthogonalEdgeStyle;rounded=0;html=1;exitX=0.75;exitY=0;exitDx=0;exitDy=0;strokeWidth=0.4;fontSize=9;fontColor=default;endArrow=none;endFill=0;dashed=1;startArrow=none;startFill=0;entryX=0.25;entryY=0;entryDx=0;entryDy=0;fontFamily=CMU Sans Serif;dashPattern=8 8;" parent="1" source="Bw2Pz7w6a_ptfYuUT3BN-341" target="Bw2Pz7w6a_ptfYuUT3BN-339" edge="1">
          <mxGeometry x="0.0049" y="10" relative="1" as="geometry">
            <mxPoint as="offset" />
            <mxPoint x="255" y="1010" as="sourcePoint" />
            <mxPoint x="305" y="1010" as="targetPoint" />
            <Array as="points">
              <mxPoint x="255" y="1000" />
              <mxPoint x="305" y="1000" />
            </Array>
          </mxGeometry>
        </mxCell>
        <mxCell id="Bw2Pz7w6a_ptfYuUT3BN-336" value="m" style="edgeLabel;html=1;align=left;verticalAlign=middle;resizable=0;points=[];fontSize=9;fontFamily=CMU Sans Serif;labelBackgroundColor=none;" parent="Bw2Pz7w6a_ptfYuUT3BN-335" vertex="1" connectable="0">
          <mxGeometry x="-0.8169" y="-1" relative="1" as="geometry">
            <mxPoint x="4" y="-2" as="offset" />
          </mxGeometry>
        </mxCell>
        <mxCell id="Bw2Pz7w6a_ptfYuUT3BN-337" value="n" style="edgeLabel;html=1;align=right;verticalAlign=middle;resizable=0;points=[];fontSize=9;fontFamily=CMU Sans Serif;" parent="Bw2Pz7w6a_ptfYuUT3BN-335" vertex="1" connectable="0">
          <mxGeometry x="0.7958" y="2" relative="1" as="geometry">
            <mxPoint x="-7" y="-1" as="offset" />
          </mxGeometry>
        </mxCell>
        <mxCell id="Bw2Pz7w6a_ptfYuUT3BN-338" style="edgeStyle=orthogonalEdgeStyle;rounded=0;html=1;entryX=0.5;entryY=0;entryDx=0;entryDy=0;strokeWidth=0.4;fontSize=10;fontColor=default;endArrow=none;endFill=0;fontFamily=CMU Sans Serif;exitX=0.5;exitY=1;exitDx=0;exitDy=0;" parent="1" source="Bw2Pz7w6a_ptfYuUT3BN-333" target="Bw2Pz7w6a_ptfYuUT3BN-321" edge="1">
          <mxGeometry relative="1" as="geometry">
            <mxPoint x="251.5" y="958" as="sourcePoint" />
            <mxPoint x="251.5" y="1028" as="targetPoint" />
          </mxGeometry>
        </mxCell>
        <mxCell id="Bw2Pz7w6a_ptfYuUT3BN-339" value="&lt;font style=&quot;&quot;&gt;&lt;span style=&quot;font-size: 11px;&quot;&gt;&lt;i&gt;ride bus&lt;/i&gt;&lt;/span&gt;&lt;br&gt;&lt;font style=&quot;font-size: 9px;&quot;&gt;(event)&lt;/font&gt;&lt;br&gt;&lt;/font&gt;" style="rounded=0;whiteSpace=wrap;html=1;labelBackgroundColor=none;fontSize=8;fontColor=default;fontFamily=CMU Sans Serif;strokeWidth=0.4;verticalAlign=top;" parent="1" vertex="1">
          <mxGeometry x="290" y="1020" width="60" height="40" as="geometry" />
        </mxCell>
        <mxCell id="Bw2Pz7w6a_ptfYuUT3BN-340" style="edgeStyle=orthogonalEdgeStyle;rounded=0;html=1;entryX=0.5;entryY=0;entryDx=0;entryDy=0;strokeWidth=0.4;fontSize=10;fontColor=default;endArrow=none;endFill=0;fontFamily=CMU Sans Serif;exitX=0.5;exitY=1;exitDx=0;exitDy=0;" parent="1" source="Bw2Pz7w6a_ptfYuUT3BN-334" target="Bw2Pz7w6a_ptfYuUT3BN-322" edge="1">
          <mxGeometry relative="1" as="geometry">
            <mxPoint x="250.5" y="960" as="sourcePoint" />
            <mxPoint x="250.5" y="1030" as="targetPoint" />
          </mxGeometry>
        </mxCell>
        <mxCell id="Bw2Pz7w6a_ptfYuUT3BN-341" value="&lt;font style=&quot;&quot;&gt;&lt;font style=&quot;font-size: 11px;&quot;&gt;Passenger&lt;/font&gt;&lt;br&gt;&lt;font style=&quot;font-size: 9px;&quot;&gt;(object)&lt;/font&gt;&lt;br&gt;&lt;/font&gt;" style="rounded=0;whiteSpace=wrap;html=1;labelBackgroundColor=none;fontSize=8;fontColor=default;fontFamily=CMU Sans Serif;strokeWidth=0.4;verticalAlign=top;fillOpacity=50;" parent="1" vertex="1">
          <mxGeometry x="210" y="1020" width="60" height="40" as="geometry" />
        </mxCell>
        <mxCell id="Bw2Pz7w6a_ptfYuUT3BN-342" value="&lt;font style=&quot;font-size: 11px;&quot;&gt;1&lt;/font&gt;&lt;div&gt;&lt;font style=&quot;font-size: 9px;&quot;&gt;[passenger]&lt;/font&gt;&lt;/div&gt;" style="rounded=0;whiteSpace=wrap;html=1;fontFamily=CMU Sans Serif;strokeWidth=0.4;verticalAlign=middle;fillOpacity=50;fontSize=11;" parent="1" vertex="1">
          <mxGeometry x="210" y="910" width="60" height="40" as="geometry" />
        </mxCell>
        <mxCell id="Bw2Pz7w6a_ptfYuUT3BN-343" value="" style="sketch=0;outlineConnect=0;dashed=0;verticalLabelPosition=bottom;verticalAlign=top;align=center;html=1;fontSize=12;fontStyle=0;aspect=fixed;shape=mxgraph.aws4.location_service_routes;labelBackgroundColor=none;fillColor=#231F20;strokeColor=none;fontFamily=CMU Sans Serif;strokeWidth=1;" parent="1" vertex="1">
          <mxGeometry x="357.5" y="1027.5" width="25" height="25" as="geometry" />
        </mxCell>
        <mxCell id="Bw2Pz7w6a_ptfYuUT3BN-344" value="&lt;span style=&quot;font-size: 12px;&quot;&gt;×&lt;/span&gt;" style="text;html=1;strokeColor=none;fillColor=none;align=center;verticalAlign=middle;whiteSpace=wrap;rounded=0;labelBackgroundColor=none;fontSize=9;fontColor=default;fontFamily=CMU Sans Serif;" parent="1" vertex="1">
          <mxGeometry x="190" y="910" width="20" height="40" as="geometry" />
        </mxCell>
        <mxCell id="Bw2Pz7w6a_ptfYuUT3BN-345" value="&lt;span style=&quot;font-size: 12px;&quot;&gt;×&lt;/span&gt;" style="text;html=1;strokeColor=none;fillColor=none;align=center;verticalAlign=middle;whiteSpace=wrap;rounded=0;labelBackgroundColor=none;fontSize=9;fontColor=default;fontFamily=CMU Sans Serif;" parent="1" vertex="1">
          <mxGeometry x="270" y="910" width="20" height="40" as="geometry" />
        </mxCell>
        <mxCell id="Bw2Pz7w6a_ptfYuUT3BN-346" value="&lt;span style=&quot;font-size: 12px;&quot;&gt;=&lt;/span&gt;" style="text;html=1;strokeColor=none;fillColor=none;align=center;verticalAlign=middle;whiteSpace=wrap;rounded=0;labelBackgroundColor=none;fontSize=9;fontColor=default;fontFamily=CMU Sans Serif;" parent="1" vertex="1">
          <mxGeometry x="360" y="910" width="20" height="40" as="geometry" />
        </mxCell>
        <mxCell id="Bw2Pz7w6a_ptfYuUT3BN-347" value="&lt;font style=&quot;font-size: 11px;&quot;&gt;E2O emission rule&lt;/font&gt;" style="text;html=1;strokeColor=none;fillColor=none;align=center;verticalAlign=middle;whiteSpace=wrap;rounded=0;labelBackgroundColor=none;fontSize=8;fontColor=default;fontFamily=CMU Sans Serif;" parent="1" vertex="1">
          <mxGeometry x="120" y="880" width="240" height="20" as="geometry" />
        </mxCell>
        <mxCell id="Bw2Pz7w6a_ptfYuUT3BN-348" value="&lt;font style=&quot;&quot;&gt;&lt;br style=&quot;font-size: 11px;&quot;&gt;&lt;/font&gt;" style="rounded=0;whiteSpace=wrap;html=1;fontFamily=CMU Sans Serif;strokeWidth=0.4;fontSize=11;verticalAlign=top;" parent="1" vertex="1">
          <mxGeometry x="384" y="906" width="60" height="40" as="geometry" />
        </mxCell>
        <mxCell id="Bw2Pz7w6a_ptfYuUT3BN-349" value="&lt;font style=&quot;&quot;&gt;&lt;br style=&quot;font-size: 11px;&quot;&gt;&lt;/font&gt;" style="rounded=0;whiteSpace=wrap;html=1;fontFamily=CMU Sans Serif;strokeWidth=0.4;fontSize=11;verticalAlign=top;" parent="1" vertex="1">
          <mxGeometry x="382" y="908" width="60" height="40" as="geometry" />
        </mxCell>
        <mxCell id="Bw2Pz7w6a_ptfYuUT3BN-350" value="&lt;font style=&quot;&quot;&gt;&lt;font style=&quot;font-size: 11px;&quot;&gt;Emissions&lt;/font&gt;&lt;br style=&quot;font-size: 11px;&quot;&gt;&lt;font style=&quot;font-size: 9px;&quot;&gt;[kgCO&lt;sub style=&quot;&quot;&gt;2&lt;/sub&gt;e]&lt;/font&gt;&lt;br style=&quot;font-size: 11px;&quot;&gt;&lt;/font&gt;" style="rounded=0;whiteSpace=wrap;html=1;fontFamily=CMU Sans Serif;strokeWidth=0.4;fontSize=11;verticalAlign=top;" parent="1" vertex="1">
          <mxGeometry x="380" y="910" width="60" height="40" as="geometry" />
        </mxCell>
        <mxCell id="Bw2Pz7w6a_ptfYuUT3BN-351" value="0.0588 kgCO2e/passenger-km&lt;br&gt;climatiq ID 06c42852-3f50-4f31-a86c-503d84b3eef5&lt;br&gt;&lt;span class=&quot;mr-2 group-hover:text-brand&quot;&gt;Diesel bus (urban)&lt;br&gt;&lt;/span&gt;&lt;span style=&quot;font-family: var(--monaco-monospace-font);&quot;&gt;LCA:&amp;nbsp;&lt;/span&gt;&lt;span class=&quot;font-mono text-[13px] font-medium text-gray-700 break-all whitespace-normal w-fit&quot;&gt;upstream-fuel_combustion&lt;/span&gt;&lt;div&gt;&lt;span style=&quot;background-color: initial;&quot;&gt;&lt;br&gt;&lt;/span&gt;&lt;/div&gt;&lt;div&gt;&lt;br&gt;&lt;/div&gt;" style="text;html=1;strokeColor=none;fillColor=none;align=left;verticalAlign=middle;whiteSpace=wrap;rounded=0;labelBackgroundColor=none;fontColor=default;" parent="1" vertex="1">
          <mxGeometry x="502.75" y="945.5" width="337.25" height="70" as="geometry" />
        </mxCell>
        <mxCell id="Bw2Pz7w6a_ptfYuUT3BN-355" value="" style="shape=actor;whiteSpace=wrap;html=1;strokeWidth=0.4;fillColor=#C8C7C7;" parent="1" vertex="1">
          <mxGeometry x="184.5" y="1027.83" width="15.33" height="20.35" as="geometry" />
        </mxCell>
        <mxCell id="4f3HucDK4AuG4sA7p0PZ-279" value="3.055 kgCO2e/L&lt;br&gt;climatiq ID d56128ea-76e5-4a31-a6fe-b5e1ed855e52&lt;br&gt;&lt;span class=&quot;mr-2 group-hover:text-brand&quot;&gt;Diesel (without biofuel content) per liter used in vehicle&lt;br&gt;&lt;/span&gt;&lt;span style=&quot;font-family: var(--monaco-monospace-font);&quot;&gt;LCA:&amp;nbsp;&lt;/span&gt;&lt;span style=&quot;background-color: initial;&quot;&gt;upstream-use_phase-transport&lt;/span&gt;" style="text;html=1;strokeColor=none;fillColor=none;align=left;verticalAlign=middle;whiteSpace=wrap;rounded=0;labelBackgroundColor=none;fontColor=default;" parent="1" vertex="1">
          <mxGeometry x="-650" y="291.5" width="310" height="70" as="geometry" />
        </mxCell>
        <mxCell id="4f3HucDK4AuG4sA7p0PZ-309" value="0.0588 kgCO2e/passenger-km&lt;br&gt;climatiq ID 06c42852-3f50-4f31-a86c-503d84b3eef5&lt;br&gt;&lt;span class=&quot;mr-2 group-hover:text-brand&quot;&gt;Diesel bus (urban)&lt;br&gt;&lt;/span&gt;&lt;span style=&quot;font-family: var(--monaco-monospace-font);&quot;&gt;LCA:&amp;nbsp;&lt;/span&gt;&lt;span class=&quot;font-mono text-[13px] font-medium text-gray-700 break-all whitespace-normal w-fit&quot;&gt;upstream-fuel_combustion&lt;/span&gt;&lt;div&gt;&lt;span style=&quot;background-color: initial;&quot;&gt;&lt;br&gt;&lt;/span&gt;&lt;/div&gt;&lt;div&gt;&lt;br&gt;&lt;/div&gt;" style="text;html=1;strokeColor=none;fillColor=none;align=left;verticalAlign=middle;whiteSpace=wrap;rounded=0;labelBackgroundColor=none;fontColor=default;" parent="1" vertex="1">
          <mxGeometry x="-330" y="292.91" width="337.25" height="70" as="geometry" />
        </mxCell>
        <mxCell id="4f3HucDK4AuG4sA7p0PZ-315" value="" style="group" parent="1" vertex="1" connectable="0">
          <mxGeometry x="-632.5" y="400" width="591" height="181" as="geometry" />
        </mxCell>
        <mxCell id="4f3HucDK4AuG4sA7p0PZ-313" value="" style="rounded=0;whiteSpace=wrap;html=1;fillColor=none;strokeColor=none;fontFamily=CMU Sans Serif;" parent="4f3HucDK4AuG4sA7p0PZ-315" vertex="1">
          <mxGeometry width="591" height="181" as="geometry" />
        </mxCell>
        <mxCell id="4f3HucDK4AuG4sA7p0PZ-257" value="" style="rounded=0;whiteSpace=wrap;html=1;labelBackgroundColor=none;strokeColor=default;fontSize=9;fontColor=default;fillColor=#F0F0F0;fontFamily=CMU Sans Serif;strokeWidth=0.4;" parent="4f3HucDK4AuG4sA7p0PZ-315" vertex="1">
          <mxGeometry y="20" width="200" height="60" as="geometry" />
        </mxCell>
        <mxCell id="4f3HucDK4AuG4sA7p0PZ-258" value="&lt;font style=&quot;font-size: 10px;&quot;&gt;3.055&lt;/font&gt;&lt;br&gt;&lt;font style=&quot;font-size: 8px;&quot;&gt;kgCO&lt;sub&gt;2&lt;/sub&gt;e/L&lt;/font&gt;" style="rounded=0;whiteSpace=wrap;html=1;fontFamily=CMU Sans Serif;strokeWidth=0.4;verticalAlign=top;" parent="4f3HucDK4AuG4sA7p0PZ-315" vertex="1">
          <mxGeometry x="10" y="30" width="50" height="40" as="geometry" />
        </mxCell>
        <mxCell id="4f3HucDK4AuG4sA7p0PZ-259" value="&lt;font style=&quot;font-size: 8px;&quot;&gt;event&lt;br style=&quot;&quot;&gt;&lt;/font&gt;&lt;div style=&quot;font-size: 8px;&quot;&gt;&lt;font style=&quot;font-size: 8px;&quot;&gt;attr.&lt;/font&gt;&lt;/div&gt;" style="edgeStyle=orthogonalEdgeStyle;rounded=0;html=1;exitX=0.5;exitY=1;exitDx=0;exitDy=0;entryX=0.5;entryY=0;entryDx=0;entryDy=0;strokeWidth=0.4;fontSize=9;fontColor=default;endArrow=none;endFill=0;align=left;fontFamily=CMU Sans Serif;" parent="4f3HucDK4AuG4sA7p0PZ-315" source="4f3HucDK4AuG4sA7p0PZ-260" target="4f3HucDK4AuG4sA7p0PZ-267" edge="1">
          <mxGeometry x="-0.1429" y="10" relative="1" as="geometry">
            <mxPoint as="offset" />
          </mxGeometry>
        </mxCell>
        <mxCell id="4f3HucDK4AuG4sA7p0PZ-260" value="&lt;font style=&quot;font-size: 10px;&quot;&gt;distance&lt;/font&gt;&lt;div style=&quot;font-size: 8px;&quot;&gt;&lt;font style=&quot;font-size: 8px;&quot;&gt;[km]&lt;/font&gt;&lt;/div&gt;" style="rounded=0;whiteSpace=wrap;html=1;fontFamily=CMU Sans Serif;strokeWidth=0.4;verticalAlign=top;" parent="4f3HucDK4AuG4sA7p0PZ-315" vertex="1">
          <mxGeometry x="140" y="30" width="50" height="40" as="geometry" />
        </mxCell>
        <mxCell id="4f3HucDK4AuG4sA7p0PZ-261" style="edgeStyle=orthogonalEdgeStyle;rounded=0;html=1;entryX=0.5;entryY=0;entryDx=0;entryDy=0;strokeWidth=0.4;fontSize=10;fontColor=default;endArrow=none;endFill=0;fontFamily=CMU Sans Serif;" parent="4f3HucDK4AuG4sA7p0PZ-315" source="4f3HucDK4AuG4sA7p0PZ-263" target="4f3HucDK4AuG4sA7p0PZ-268" edge="1">
          <mxGeometry relative="1" as="geometry" />
        </mxCell>
        <mxCell id="4f3HucDK4AuG4sA7p0PZ-262" value="&lt;font style=&quot;font-size: 8px;&quot;&gt;object&lt;br style=&quot;&quot;&gt;attr.&lt;/font&gt;" style="edgeLabel;html=1;align=right;verticalAlign=middle;resizable=0;points=[];fontSize=9;fontColor=default;fontFamily=CMU Sans Serif;" parent="4f3HucDK4AuG4sA7p0PZ-261" vertex="1" connectable="0">
          <mxGeometry x="-0.2762" y="2" relative="1" as="geometry">
            <mxPoint x="-12" y="5" as="offset" />
          </mxGeometry>
        </mxCell>
        <mxCell id="4f3HucDK4AuG4sA7p0PZ-263" value="&lt;font style=&quot;font-size: 10px;&quot;&gt;&lt;font style=&quot;font-size: 10px;&quot;&gt;consumpt&lt;/font&gt;.&lt;br&gt;&lt;font style=&quot;font-size: 8px;&quot;&gt;[L/100km]&lt;/font&gt;&lt;/font&gt;" style="rounded=0;whiteSpace=wrap;html=1;fontFamily=CMU Sans Serif;strokeWidth=0.4;verticalAlign=top;" parent="4f3HucDK4AuG4sA7p0PZ-315" vertex="1">
          <mxGeometry x="75" y="30" width="50" height="40" as="geometry" />
        </mxCell>
        <mxCell id="4f3HucDK4AuG4sA7p0PZ-264" value="&lt;font style=&quot;font-size: 8px;&quot;&gt;&amp;lt;qualifier&amp;gt;&lt;/font&gt;" style="edgeStyle=orthogonalEdgeStyle;rounded=0;html=1;exitX=0.75;exitY=0;exitDx=0;exitDy=0;strokeWidth=0.4;fontSize=9;fontColor=default;endArrow=none;endFill=0;dashed=1;startArrow=none;startFill=0;entryX=0.25;entryY=0;entryDx=0;entryDy=0;fontFamily=CMU Sans Serif;dashPattern=8 8;" parent="4f3HucDK4AuG4sA7p0PZ-315" source="4f3HucDK4AuG4sA7p0PZ-268" target="4f3HucDK4AuG4sA7p0PZ-267" edge="1">
          <mxGeometry x="0.0049" y="10" relative="1" as="geometry">
            <mxPoint as="offset" />
            <mxPoint x="135" y="130" as="sourcePoint" />
            <mxPoint x="185" y="130" as="targetPoint" />
            <Array as="points">
              <mxPoint x="135" y="120" />
              <mxPoint x="185" y="120" />
            </Array>
          </mxGeometry>
        </mxCell>
        <mxCell id="4f3HucDK4AuG4sA7p0PZ-265" value="&lt;font style=&quot;font-size: 8px;&quot;&gt;1&lt;/font&gt;" style="edgeLabel;html=1;align=left;verticalAlign=middle;resizable=0;points=[];fontSize=9;fontFamily=CMU Sans Serif;" parent="4f3HucDK4AuG4sA7p0PZ-264" vertex="1" connectable="0">
          <mxGeometry x="-0.8169" y="-1" relative="1" as="geometry">
            <mxPoint x="2" y="-2" as="offset" />
          </mxGeometry>
        </mxCell>
        <mxCell id="4f3HucDK4AuG4sA7p0PZ-266" value="&lt;font style=&quot;font-size: 8px;&quot;&gt;n&lt;/font&gt;" style="edgeLabel;html=1;align=right;verticalAlign=middle;resizable=0;points=[];fontSize=9;fontFamily=CMU Sans Serif;" parent="4f3HucDK4AuG4sA7p0PZ-264" vertex="1" connectable="0">
          <mxGeometry x="0.7958" y="2" relative="1" as="geometry">
            <mxPoint x="-4" y="-1" as="offset" />
          </mxGeometry>
        </mxCell>
        <mxCell id="4f3HucDK4AuG4sA7p0PZ-267" value="&lt;font style=&quot;&quot;&gt;&lt;i style=&quot;&quot;&gt;&lt;font style=&quot;font-size: 11px;&quot;&gt;deliver&lt;/font&gt;&lt;/i&gt;&lt;br&gt;&lt;font style=&quot;font-size: 8px;&quot;&gt;(event)&lt;/font&gt;&lt;br&gt;&lt;/font&gt;" style="rounded=0;whiteSpace=wrap;html=1;labelBackgroundColor=none;fontSize=8;fontColor=default;fontFamily=CMU Sans Serif;strokeWidth=0.4;verticalAlign=top;" parent="4f3HucDK4AuG4sA7p0PZ-315" vertex="1">
          <mxGeometry x="140" y="140" width="50" height="40" as="geometry" />
        </mxCell>
        <mxCell id="4f3HucDK4AuG4sA7p0PZ-268" value="&lt;font style=&quot;&quot;&gt;&lt;font style=&quot;font-size: 11px;&quot;&gt;Vehicle&lt;/font&gt;&lt;br&gt;&lt;font style=&quot;font-size: 8px;&quot;&gt;(object)&lt;/font&gt;&lt;br&gt;&lt;/font&gt;" style="rounded=0;whiteSpace=wrap;html=1;labelBackgroundColor=none;fontSize=8;fontColor=default;fontFamily=CMU Sans Serif;strokeWidth=0.4;verticalAlign=top;" parent="4f3HucDK4AuG4sA7p0PZ-315" vertex="1">
          <mxGeometry x="75" y="140" width="50" height="40" as="geometry" />
        </mxCell>
        <mxCell id="4f3HucDK4AuG4sA7p0PZ-269" value="" style="sketch=0;outlineConnect=0;dashed=0;verticalLabelPosition=bottom;verticalAlign=top;align=center;html=1;fontSize=12;fontStyle=0;aspect=fixed;shape=mxgraph.aws4.location_service_routes;labelBackgroundColor=none;fillColor=#231F20;strokeColor=none;fontFamily=CMU Sans Serif;strokeWidth=1;" parent="4f3HucDK4AuG4sA7p0PZ-315" vertex="1">
          <mxGeometry x="199.99999999999994" y="147.5" width="25" height="25" as="geometry" />
        </mxCell>
        <mxCell id="4f3HucDK4AuG4sA7p0PZ-270" value="&lt;font style=&quot;font-size: 8px;&quot;&gt;event&lt;br style=&quot;&quot;&gt;attr.&lt;/font&gt;" style="edgeStyle=orthogonalEdgeStyle;rounded=0;html=1;exitX=0.5;exitY=1;exitDx=0;exitDy=0;entryX=0.75;entryY=0;entryDx=0;entryDy=0;strokeWidth=0.4;fontSize=9;fontColor=default;endArrow=classic;endFill=1;align=left;fontFamily=CMU Sans Serif;" parent="4f3HucDK4AuG4sA7p0PZ-315" source="4f3HucDK4AuG4sA7p0PZ-271" target="4f3HucDK4AuG4sA7p0PZ-267" edge="1">
          <mxGeometry x="-0.5644" y="5" relative="1" as="geometry">
            <mxPoint x="80" y="160" as="targetPoint" />
            <mxPoint as="offset" />
            <Array as="points">
              <mxPoint x="245" y="119.94000000000005" />
              <mxPoint x="178" y="119.94000000000005" />
            </Array>
          </mxGeometry>
        </mxCell>
        <mxCell id="4f3HucDK4AuG4sA7p0PZ-271" value="&lt;font style=&quot;font-size: 8px;&quot;&gt;&lt;font style=&quot;font-size: 10px;&quot;&gt;Emissions&lt;/font&gt;&lt;br style=&quot;font-size: 11px;&quot;&gt;&lt;font style=&quot;font-size: 8px;&quot;&gt;[kgCO&lt;sub style=&quot;&quot;&gt;2&lt;/sub&gt;e]&lt;/font&gt;&lt;br style=&quot;font-size: 11px;&quot;&gt;&lt;/font&gt;" style="rounded=0;whiteSpace=wrap;html=1;fontFamily=CMU Sans Serif;strokeWidth=0.4;fontSize=11;verticalAlign=top;" parent="4f3HucDK4AuG4sA7p0PZ-315" vertex="1">
          <mxGeometry x="220" y="30" width="50" height="40" as="geometry" />
        </mxCell>
        <mxCell id="4f3HucDK4AuG4sA7p0PZ-272" value="&lt;span style=&quot;font-size: 12px;&quot;&gt;×&lt;/span&gt;" style="text;html=1;strokeColor=none;fillColor=none;align=center;verticalAlign=middle;whiteSpace=wrap;rounded=0;labelBackgroundColor=none;fontSize=9;fontColor=default;fontFamily=CMU Sans Serif;" parent="4f3HucDK4AuG4sA7p0PZ-315" vertex="1">
          <mxGeometry x="60" y="29.939999999999998" width="15" height="40" as="geometry" />
        </mxCell>
        <mxCell id="4f3HucDK4AuG4sA7p0PZ-273" value="&lt;span style=&quot;font-size: 12px;&quot;&gt;×&lt;/span&gt;" style="text;html=1;strokeColor=none;fillColor=none;align=center;verticalAlign=middle;whiteSpace=wrap;rounded=0;labelBackgroundColor=none;fontSize=9;fontColor=default;fontFamily=CMU Sans Serif;" parent="4f3HucDK4AuG4sA7p0PZ-315" vertex="1">
          <mxGeometry x="125" y="30" width="15" height="40" as="geometry" />
        </mxCell>
        <mxCell id="4f3HucDK4AuG4sA7p0PZ-274" value="&lt;span style=&quot;font-size: 12px;&quot;&gt;=&lt;/span&gt;" style="text;html=1;strokeColor=none;fillColor=none;align=center;verticalAlign=middle;whiteSpace=wrap;rounded=0;labelBackgroundColor=none;fontSize=9;fontColor=default;fontFamily=CMU Sans Serif;" parent="4f3HucDK4AuG4sA7p0PZ-315" vertex="1">
          <mxGeometry x="199.99999999999994" y="29.939999999999998" width="20" height="40" as="geometry" />
        </mxCell>
        <mxCell id="4f3HucDK4AuG4sA7p0PZ-275" value="&lt;font style=&quot;font-size: 11px;&quot;&gt;Event emission rule&lt;/font&gt;" style="text;html=1;strokeColor=none;fillColor=none;align=center;verticalAlign=middle;whiteSpace=wrap;rounded=0;labelBackgroundColor=none;fontSize=8;fontColor=default;fontFamily=CMU Sans Serif;" parent="4f3HucDK4AuG4sA7p0PZ-315" vertex="1">
          <mxGeometry width="200" height="20" as="geometry" />
        </mxCell>
        <mxCell id="4f3HucDK4AuG4sA7p0PZ-276" value="" style="shape=mxgraph.signs.transportation.truck_1;html=1;pointerEvents=1;fillColor=#40bfbc;strokeColor=default;verticalLabelPosition=bottom;verticalAlign=top;align=center;labelBackgroundColor=none;fontSize=8;fontColor=default;strokeWidth=0.4;fillOpacity=100;" parent="4f3HucDK4AuG4sA7p0PZ-315" vertex="1">
          <mxGeometry x="26.170000000000186" y="148" width="38.83" height="20" as="geometry" />
        </mxCell>
        <mxCell id="4f3HucDK4AuG4sA7p0PZ-280" value="&lt;font style=&quot;&quot;&gt;&lt;br&gt;&lt;/font&gt;" style="rounded=0;whiteSpace=wrap;html=1;labelBackgroundColor=none;fontSize=8;fontColor=default;fontFamily=CMU Sans Serif;strokeWidth=0.4;verticalAlign=top;fillOpacity=50;" parent="4f3HucDK4AuG4sA7p0PZ-315" vertex="1">
          <mxGeometry x="391" y="136" width="50" height="40" as="geometry" />
        </mxCell>
        <mxCell id="4f3HucDK4AuG4sA7p0PZ-281" value="&lt;font style=&quot;&quot;&gt;&lt;br&gt;&lt;/font&gt;" style="rounded=0;whiteSpace=wrap;html=1;labelBackgroundColor=none;fontSize=8;fontColor=default;fontFamily=CMU Sans Serif;strokeWidth=0.4;verticalAlign=top;fillOpacity=50;" parent="4f3HucDK4AuG4sA7p0PZ-315" vertex="1">
          <mxGeometry x="389" y="138" width="50" height="40" as="geometry" />
        </mxCell>
        <mxCell id="4f3HucDK4AuG4sA7p0PZ-282" value="" style="rounded=0;whiteSpace=wrap;html=1;labelBackgroundColor=none;strokeColor=default;fontSize=9;fontColor=default;fillColor=#F0F0F0;fontFamily=CMU Sans Serif;strokeWidth=0.4;" parent="4f3HucDK4AuG4sA7p0PZ-315" vertex="1">
          <mxGeometry x="312" y="20" width="204" height="60" as="geometry" />
        </mxCell>
        <mxCell id="4f3HucDK4AuG4sA7p0PZ-283" value="&lt;font style=&quot;font-size: 10px;&quot;&gt;0.0588&lt;/font&gt;&lt;br&gt;&lt;font style=&quot;font-size: 8px;&quot;&gt;kgCO&lt;sub&gt;2&lt;/sub&gt;e/pkm&lt;/font&gt;" style="rounded=0;whiteSpace=wrap;html=1;fontFamily=CMU Sans Serif;strokeWidth=0.4;verticalAlign=top;" parent="4f3HucDK4AuG4sA7p0PZ-315" vertex="1">
          <mxGeometry x="322" y="30" width="50" height="40" as="geometry" />
        </mxCell>
        <mxCell id="4f3HucDK4AuG4sA7p0PZ-284" value="&lt;font style=&quot;font-size: 8px;&quot;&gt;event&lt;br style=&quot;font-size: 8px;&quot;&gt;&lt;/font&gt;&lt;div style=&quot;font-size: 8px;&quot;&gt;&lt;font style=&quot;font-size: 8px;&quot;&gt;attr.&lt;/font&gt;&lt;/div&gt;" style="edgeStyle=orthogonalEdgeStyle;rounded=0;html=1;exitX=0.5;exitY=1;exitDx=0;exitDy=0;entryX=0.5;entryY=0;entryDx=0;entryDy=0;strokeWidth=0.4;fontSize=8;fontColor=default;endArrow=none;endFill=0;align=left;fontFamily=CMU Sans Serif;" parent="4f3HucDK4AuG4sA7p0PZ-315" source="4f3HucDK4AuG4sA7p0PZ-285" target="4f3HucDK4AuG4sA7p0PZ-297" edge="1">
          <mxGeometry x="-0.1429" y="10" relative="1" as="geometry">
            <mxPoint as="offset" />
          </mxGeometry>
        </mxCell>
        <mxCell id="4f3HucDK4AuG4sA7p0PZ-285" value="&lt;font style=&quot;font-size: 10px;&quot;&gt;distance&lt;/font&gt;&lt;div&gt;&lt;font style=&quot;font-size: 8px;&quot;&gt;[km]&lt;/font&gt;&lt;/div&gt;" style="rounded=0;whiteSpace=wrap;html=1;fontFamily=CMU Sans Serif;strokeWidth=0.4;verticalAlign=top;" parent="4f3HucDK4AuG4sA7p0PZ-315" vertex="1">
          <mxGeometry x="456" y="30" width="50" height="40" as="geometry" />
        </mxCell>
        <mxCell id="4f3HucDK4AuG4sA7p0PZ-286" style="edgeStyle=orthogonalEdgeStyle;rounded=0;html=1;entryX=0.5;entryY=0;entryDx=0;entryDy=0;strokeWidth=0.4;fontSize=10;fontColor=default;endArrow=none;endFill=0;fontFamily=CMU Sans Serif;" parent="4f3HucDK4AuG4sA7p0PZ-315" source="4f3HucDK4AuG4sA7p0PZ-300" target="4f3HucDK4AuG4sA7p0PZ-299" edge="1">
          <mxGeometry relative="1" as="geometry" />
        </mxCell>
        <mxCell id="4f3HucDK4AuG4sA7p0PZ-287" value="" style="group" parent="4f3HucDK4AuG4sA7p0PZ-315" vertex="1" connectable="0">
          <mxGeometry x="387" y="26" width="64" height="44" as="geometry" />
        </mxCell>
        <mxCell id="4f3HucDK4AuG4sA7p0PZ-288" value="" style="rounded=0;whiteSpace=wrap;html=1;fontFamily=CMU Sans Serif;strokeWidth=0.4;verticalAlign=top;fillOpacity=100;strokeColor=none;" parent="4f3HucDK4AuG4sA7p0PZ-287" vertex="1">
          <mxGeometry y="4" width="50" height="40" as="geometry" />
        </mxCell>
        <mxCell id="4f3HucDK4AuG4sA7p0PZ-289" value="" style="rounded=0;whiteSpace=wrap;html=1;fontFamily=CMU Sans Serif;strokeWidth=0.4;verticalAlign=top;fillOpacity=100;strokeColor=none;" parent="4f3HucDK4AuG4sA7p0PZ-287" vertex="1">
          <mxGeometry x="2" y="2" width="50" height="40" as="geometry" />
        </mxCell>
        <mxCell id="4f3HucDK4AuG4sA7p0PZ-290" value="" style="rounded=0;whiteSpace=wrap;html=1;fontFamily=CMU Sans Serif;strokeWidth=0.4;verticalAlign=top;fillOpacity=100;strokeColor=none;" parent="4f3HucDK4AuG4sA7p0PZ-287" vertex="1">
          <mxGeometry x="4" width="50" height="40" as="geometry" />
        </mxCell>
        <mxCell id="4f3HucDK4AuG4sA7p0PZ-291" value="" style="rounded=0;whiteSpace=wrap;html=1;fontFamily=CMU Sans Serif;strokeWidth=0.4;verticalAlign=top;fillOpacity=50;" parent="4f3HucDK4AuG4sA7p0PZ-315" vertex="1">
          <mxGeometry x="391" y="26" width="50" height="40" as="geometry" />
        </mxCell>
        <mxCell id="4f3HucDK4AuG4sA7p0PZ-292" value="" style="rounded=0;whiteSpace=wrap;html=1;fontFamily=CMU Sans Serif;strokeWidth=0.4;verticalAlign=top;fillOpacity=50;" parent="4f3HucDK4AuG4sA7p0PZ-315" vertex="1">
          <mxGeometry x="389" y="28" width="50" height="40" as="geometry" />
        </mxCell>
        <mxCell id="4f3HucDK4AuG4sA7p0PZ-293" value="&lt;font style=&quot;font-size: 8px;&quot;&gt;&amp;lt;qualifier&amp;gt;&lt;/font&gt;" style="edgeStyle=orthogonalEdgeStyle;rounded=0;html=1;exitX=0.75;exitY=0;exitDx=0;exitDy=0;strokeWidth=0.4;fontSize=8;fontColor=default;endArrow=none;endFill=0;dashed=1;startArrow=none;startFill=0;entryX=0.25;entryY=0;entryDx=0;entryDy=0;fontFamily=CMU Sans Serif;dashPattern=8 8;" parent="4f3HucDK4AuG4sA7p0PZ-315" source="4f3HucDK4AuG4sA7p0PZ-299" target="4f3HucDK4AuG4sA7p0PZ-297" edge="1">
          <mxGeometry x="0.0049" y="10" relative="1" as="geometry">
            <mxPoint as="offset" />
            <mxPoint x="447" y="130" as="sourcePoint" />
            <mxPoint x="497" y="130" as="targetPoint" />
            <Array as="points">
              <mxPoint x="447" y="120" />
              <mxPoint x="497" y="120" />
            </Array>
          </mxGeometry>
        </mxCell>
        <mxCell id="4f3HucDK4AuG4sA7p0PZ-294" value="m" style="edgeLabel;html=1;align=left;verticalAlign=middle;resizable=0;points=[];fontSize=8;fontFamily=CMU Sans Serif;labelBackgroundColor=none;" parent="4f3HucDK4AuG4sA7p0PZ-293" vertex="1" connectable="0">
          <mxGeometry x="-0.8169" y="-1" relative="1" as="geometry">
            <mxPoint x="4" y="-2" as="offset" />
          </mxGeometry>
        </mxCell>
        <mxCell id="4f3HucDK4AuG4sA7p0PZ-295" value="n" style="edgeLabel;html=1;align=right;verticalAlign=middle;resizable=0;points=[];fontSize=8;fontFamily=CMU Sans Serif;" parent="4f3HucDK4AuG4sA7p0PZ-293" vertex="1" connectable="0">
          <mxGeometry x="0.7958" y="2" relative="1" as="geometry">
            <mxPoint x="-7" y="-1" as="offset" />
          </mxGeometry>
        </mxCell>
        <mxCell id="4f3HucDK4AuG4sA7p0PZ-296" style="edgeStyle=orthogonalEdgeStyle;rounded=0;html=1;entryX=0.5;entryY=0;entryDx=0;entryDy=0;strokeWidth=0.4;fontSize=10;fontColor=default;endArrow=none;endFill=0;fontFamily=CMU Sans Serif;exitX=0.5;exitY=1;exitDx=0;exitDy=0;" parent="4f3HucDK4AuG4sA7p0PZ-315" source="4f3HucDK4AuG4sA7p0PZ-291" target="4f3HucDK4AuG4sA7p0PZ-280" edge="1">
          <mxGeometry relative="1" as="geometry">
            <mxPoint x="428.5" y="78" as="sourcePoint" />
            <mxPoint x="428.5" y="148" as="targetPoint" />
          </mxGeometry>
        </mxCell>
        <mxCell id="4f3HucDK4AuG4sA7p0PZ-297" value="&lt;font style=&quot;&quot;&gt;&lt;i style=&quot;&quot;&gt;&lt;font style=&quot;font-size: 10px;&quot;&gt;ride bus&lt;/font&gt;&lt;/i&gt;&lt;br style=&quot;font-size: 8px;&quot;&gt;&lt;font style=&quot;font-size: 8px;&quot;&gt;(event)&lt;/font&gt;&lt;br style=&quot;font-size: 8px;&quot;&gt;&lt;/font&gt;" style="rounded=0;whiteSpace=wrap;html=1;labelBackgroundColor=none;fontSize=8;fontColor=default;fontFamily=CMU Sans Serif;strokeWidth=0.4;verticalAlign=middle;" parent="4f3HucDK4AuG4sA7p0PZ-315" vertex="1">
          <mxGeometry x="456" y="140" width="50" height="40" as="geometry" />
        </mxCell>
        <mxCell id="4f3HucDK4AuG4sA7p0PZ-298" style="edgeStyle=orthogonalEdgeStyle;rounded=0;html=1;entryX=0.5;entryY=0;entryDx=0;entryDy=0;strokeWidth=0.4;fontSize=10;fontColor=default;endArrow=none;endFill=0;fontFamily=CMU Sans Serif;exitX=0.5;exitY=1;exitDx=0;exitDy=0;" parent="4f3HucDK4AuG4sA7p0PZ-315" source="4f3HucDK4AuG4sA7p0PZ-292" target="4f3HucDK4AuG4sA7p0PZ-281" edge="1">
          <mxGeometry relative="1" as="geometry">
            <mxPoint x="427.5" y="80" as="sourcePoint" />
            <mxPoint x="427.5" y="150" as="targetPoint" />
          </mxGeometry>
        </mxCell>
        <mxCell id="4f3HucDK4AuG4sA7p0PZ-299" value="&lt;font style=&quot;&quot;&gt;&lt;font style=&quot;font-size: 10px;&quot;&gt;Passenger&lt;/font&gt;&lt;br style=&quot;font-size: 8px;&quot;&gt;&lt;font style=&quot;font-size: 8px;&quot;&gt;(object)&lt;/font&gt;&lt;br style=&quot;font-size: 8px;&quot;&gt;&lt;/font&gt;" style="rounded=0;whiteSpace=wrap;html=1;labelBackgroundColor=none;fontSize=8;fontColor=default;fontFamily=CMU Sans Serif;strokeWidth=0.4;verticalAlign=middle;fillOpacity=50;" parent="4f3HucDK4AuG4sA7p0PZ-315" vertex="1">
          <mxGeometry x="387" y="140" width="50" height="40" as="geometry" />
        </mxCell>
        <mxCell id="4f3HucDK4AuG4sA7p0PZ-300" value="&lt;font style=&quot;font-size: 10px;&quot;&gt;1&lt;/font&gt;&lt;div&gt;&lt;font style=&quot;font-size: 8px;&quot;&gt;[passenger]&lt;/font&gt;&lt;/div&gt;" style="rounded=0;whiteSpace=wrap;html=1;fontFamily=CMU Sans Serif;strokeWidth=0.4;verticalAlign=middle;fillOpacity=50;fontSize=11;" parent="4f3HucDK4AuG4sA7p0PZ-315" vertex="1">
          <mxGeometry x="387" y="30" width="50" height="40" as="geometry" />
        </mxCell>
        <mxCell id="4f3HucDK4AuG4sA7p0PZ-301" value="" style="sketch=0;outlineConnect=0;dashed=0;verticalLabelPosition=bottom;verticalAlign=top;align=center;html=1;fontSize=12;fontStyle=0;aspect=fixed;shape=mxgraph.aws4.location_service_routes;labelBackgroundColor=none;fillColor=#231F20;strokeColor=none;fontFamily=CMU Sans Serif;strokeWidth=1;" parent="4f3HucDK4AuG4sA7p0PZ-315" vertex="1">
          <mxGeometry x="516" y="147.5" width="25" height="25" as="geometry" />
        </mxCell>
        <mxCell id="4f3HucDK4AuG4sA7p0PZ-302" value="&lt;span style=&quot;font-size: 12px;&quot;&gt;×&lt;/span&gt;" style="text;html=1;strokeColor=none;fillColor=none;align=center;verticalAlign=middle;whiteSpace=wrap;rounded=0;labelBackgroundColor=none;fontSize=9;fontColor=default;fontFamily=CMU Sans Serif;" parent="4f3HucDK4AuG4sA7p0PZ-315" vertex="1">
          <mxGeometry x="372" y="29.939999999999998" width="15" height="40" as="geometry" />
        </mxCell>
        <mxCell id="4f3HucDK4AuG4sA7p0PZ-303" value="&lt;span style=&quot;font-size: 12px;&quot;&gt;×&lt;/span&gt;" style="text;html=1;strokeColor=none;fillColor=none;align=center;verticalAlign=middle;whiteSpace=wrap;rounded=0;labelBackgroundColor=none;fontSize=9;fontColor=default;fontFamily=CMU Sans Serif;" parent="4f3HucDK4AuG4sA7p0PZ-315" vertex="1">
          <mxGeometry x="441" y="30" width="15" height="40" as="geometry" />
        </mxCell>
        <mxCell id="4f3HucDK4AuG4sA7p0PZ-304" value="&lt;span style=&quot;font-size: 12px;&quot;&gt;=&lt;/span&gt;" style="text;html=1;strokeColor=none;fillColor=none;align=center;verticalAlign=middle;whiteSpace=wrap;rounded=0;labelBackgroundColor=none;fontSize=9;fontColor=default;fontFamily=CMU Sans Serif;" parent="4f3HucDK4AuG4sA7p0PZ-315" vertex="1">
          <mxGeometry x="516" y="29.939999999999998" width="20" height="40" as="geometry" />
        </mxCell>
        <mxCell id="4f3HucDK4AuG4sA7p0PZ-305" value="&lt;font style=&quot;font-size: 11px;&quot;&gt;E2O emission rule&lt;/font&gt;" style="text;html=1;strokeColor=none;fillColor=none;align=center;verticalAlign=middle;whiteSpace=wrap;rounded=0;labelBackgroundColor=none;fontSize=8;fontColor=default;fontFamily=CMU Sans Serif;" parent="4f3HucDK4AuG4sA7p0PZ-315" vertex="1">
          <mxGeometry x="312" width="204" height="20" as="geometry" />
        </mxCell>
        <mxCell id="4f3HucDK4AuG4sA7p0PZ-306" value="&lt;font style=&quot;&quot;&gt;&lt;br style=&quot;font-size: 11px;&quot;&gt;&lt;/font&gt;" style="rounded=0;whiteSpace=wrap;html=1;fontFamily=CMU Sans Serif;strokeWidth=0.4;fontSize=11;verticalAlign=top;fillOpacity=50;" parent="4f3HucDK4AuG4sA7p0PZ-315" vertex="1">
          <mxGeometry x="540" y="25.939999999999998" width="50" height="40" as="geometry" />
        </mxCell>
        <mxCell id="4f3HucDK4AuG4sA7p0PZ-307" value="&lt;font style=&quot;&quot;&gt;&lt;br style=&quot;font-size: 11px;&quot;&gt;&lt;/font&gt;" style="rounded=0;whiteSpace=wrap;html=1;fontFamily=CMU Sans Serif;strokeWidth=0.4;fontSize=11;verticalAlign=top;fillOpacity=50;" parent="4f3HucDK4AuG4sA7p0PZ-315" vertex="1">
          <mxGeometry x="538" y="27.939999999999998" width="50" height="40" as="geometry" />
        </mxCell>
        <mxCell id="4f3HucDK4AuG4sA7p0PZ-308" value="&lt;font style=&quot;font-size: 8px;&quot;&gt;&lt;font style=&quot;font-size: 10px;&quot;&gt;Emissions&lt;/font&gt;&lt;br style=&quot;font-size: 11px;&quot;&gt;&lt;font style=&quot;font-size: 8px;&quot;&gt;[kgCO&lt;sub style=&quot;&quot;&gt;2&lt;/sub&gt;e]&lt;/font&gt;&lt;br style=&quot;font-size: 11px;&quot;&gt;&lt;/font&gt;" style="rounded=0;whiteSpace=wrap;html=1;fontFamily=CMU Sans Serif;strokeWidth=0.4;fontSize=11;verticalAlign=top;fillOpacity=50;" parent="4f3HucDK4AuG4sA7p0PZ-315" vertex="1">
          <mxGeometry x="536" y="29.939999999999998" width="50" height="40" as="geometry" />
        </mxCell>
        <mxCell id="4f3HucDK4AuG4sA7p0PZ-310" value="" style="shape=actor;whiteSpace=wrap;html=1;strokeWidth=0.4;fillColor=#C8C7C7;" parent="4f3HucDK4AuG4sA7p0PZ-315" vertex="1">
          <mxGeometry x="361.67" y="147.9999999999999" width="15.33" height="20.35" as="geometry" />
        </mxCell>
      </root>
    </mxGraphModel>
  </diagram>
  <diagram id="AF1mNwEFjtG-hyu-stei" name="Class Diagram">
    <mxGraphModel dx="2165" dy="1295" grid="1" gridSize="10" guides="1" tooltips="1" connect="1" arrows="1" fold="1" page="1" pageScale="1" pageWidth="1654" pageHeight="1169" math="0" shadow="0">
      <root>
        <mxCell id="0" />
        <mxCell id="1" parent="0" />
        <mxCell id="dXkiN72xanmllNpG-M6N-1" value="EventEmissionRule" style="swimlane;fontStyle=0;childLayout=stackLayout;horizontal=1;startSize=40;fillColor=none;horizontalStack=0;resizeParent=1;resizeParentMax=0;resizeLast=0;collapsible=1;marginBottom=0;" vertex="1" parent="1">
          <mxGeometry x="450" y="650" width="200" height="92" as="geometry">
            <mxRectangle x="470" y="345" width="150" height="40" as="alternateBounds" />
          </mxGeometry>
        </mxCell>
        <mxCell id="dXkiN72xanmllNpG-M6N-2" value="+ activity" style="text;strokeColor=none;fillColor=none;align=left;verticalAlign=top;spacingLeft=4;spacingRight=4;overflow=hidden;rotatable=0;points=[[0,0.5],[1,0.5]];portConstraint=eastwest;" vertex="1" parent="dXkiN72xanmllNpG-M6N-1">
          <mxGeometry y="40" width="200" height="26" as="geometry" />
        </mxCell>
        <mxCell id="dXkiN72xanmllNpG-M6N-3" value="+ factor: Factor" style="text;strokeColor=none;fillColor=none;align=left;verticalAlign=top;spacingLeft=4;spacingRight=4;overflow=hidden;rotatable=0;points=[[0,0.5],[1,0.5]];portConstraint=eastwest;" vertex="1" parent="dXkiN72xanmllNpG-M6N-1">
          <mxGeometry y="66" width="200" height="26" as="geometry" />
        </mxCell>
        <mxCell id="dXkiN72xanmllNpG-M6N-4" style="edgeStyle=orthogonalEdgeStyle;html=1;exitX=0.25;exitY=1;exitDx=0;exitDy=0;entryX=0;entryY=0.5;entryDx=0;entryDy=0;endArrow=block;endFill=0;endSize=12;" edge="1" parent="1" source="dXkiN72xanmllNpG-M6N-6" target="dXkiN72xanmllNpG-M6N-16">
          <mxGeometry relative="1" as="geometry" />
        </mxCell>
        <mxCell id="dXkiN72xanmllNpG-M6N-5" value="extends&lt;br&gt;&lt;font style=&quot;font-size: 9px;&quot;&gt;(constant emissions)&lt;/font&gt;" style="edgeLabel;html=1;align=right;verticalAlign=middle;resizable=0;points=[];" vertex="1" connectable="0" parent="dXkiN72xanmllNpG-M6N-4">
          <mxGeometry x="-0.04" y="1" relative="1" as="geometry">
            <mxPoint x="177" y="21" as="offset" />
          </mxGeometry>
        </mxCell>
        <mxCell id="dXkiN72xanmllNpG-M6N-6" value="Value" style="html=1;" vertex="1" parent="1">
          <mxGeometry x="370" y="330" width="120" height="40" as="geometry" />
        </mxCell>
        <mxCell id="dXkiN72xanmllNpG-M6N-7" style="edgeStyle=none;html=1;exitX=1;exitY=0.5;exitDx=0;exitDy=0;entryX=0;entryY=0.5;entryDx=0;entryDy=0;endArrow=diamondThin;endFill=0;endSize=12;" edge="1" parent="1" source="dXkiN72xanmllNpG-M6N-10" target="dXkiN72xanmllNpG-M6N-11">
          <mxGeometry relative="1" as="geometry" />
        </mxCell>
        <mxCell id="dXkiN72xanmllNpG-M6N-8" value="1" style="edgeLabel;html=1;align=center;verticalAlign=middle;resizable=0;points=[];" vertex="1" connectable="0" parent="dXkiN72xanmllNpG-M6N-7">
          <mxGeometry x="-0.6452" y="-2" relative="1" as="geometry">
            <mxPoint y="8" as="offset" />
          </mxGeometry>
        </mxCell>
        <mxCell id="dXkiN72xanmllNpG-M6N-9" value="1" style="edgeLabel;html=1;align=center;verticalAlign=middle;resizable=0;points=[];" vertex="1" connectable="0" parent="dXkiN72xanmllNpG-M6N-7">
          <mxGeometry x="0.3905" relative="1" as="geometry">
            <mxPoint x="6" y="10" as="offset" />
          </mxGeometry>
        </mxCell>
        <mxCell id="dXkiN72xanmllNpG-M6N-10" value="Quantity" style="html=1;" vertex="1" parent="1">
          <mxGeometry x="250" y="250" width="120" height="40" as="geometry" />
        </mxCell>
        <mxCell id="dXkiN72xanmllNpG-M6N-11" value="climatiq &lt;font face=&quot;Consolas&quot;&gt;id&lt;/font&gt;" style="html=1;" vertex="1" parent="1">
          <mxGeometry x="490" y="250" width="120" height="40" as="geometry" />
        </mxCell>
        <mxCell id="dXkiN72xanmllNpG-M6N-12" value="" style="endArrow=block;endSize=12;endFill=0;html=1;exitX=0.5;exitY=1;exitDx=0;exitDy=0;entryX=0;entryY=0.5;entryDx=0;entryDy=0;edgeStyle=orthogonalEdgeStyle;" edge="1" parent="1" source="dXkiN72xanmllNpG-M6N-10" target="dXkiN72xanmllNpG-M6N-6">
          <mxGeometry y="-41" width="160" relative="1" as="geometry">
            <mxPoint x="180" y="440" as="sourcePoint" />
            <mxPoint x="340" y="440" as="targetPoint" />
            <mxPoint x="-40" y="-31" as="offset" />
          </mxGeometry>
        </mxCell>
        <mxCell id="dXkiN72xanmllNpG-M6N-13" value="" style="endArrow=block;endSize=12;endFill=0;html=1;exitX=0.5;exitY=1;exitDx=0;exitDy=0;entryX=1;entryY=0.5;entryDx=0;entryDy=0;edgeStyle=orthogonalEdgeStyle;" edge="1" parent="1" source="dXkiN72xanmllNpG-M6N-11" target="dXkiN72xanmllNpG-M6N-6">
          <mxGeometry y="-41" width="160" relative="1" as="geometry">
            <mxPoint x="670" y="450" as="sourcePoint" />
            <mxPoint x="730" y="510" as="targetPoint" />
            <mxPoint x="-40" y="-31" as="offset" />
          </mxGeometry>
        </mxCell>
        <mxCell id="dXkiN72xanmllNpG-M6N-14" style="edgeStyle=orthogonalEdgeStyle;html=1;exitX=0.25;exitY=1;exitDx=0;exitDy=0;entryX=0.5;entryY=0;entryDx=0;entryDy=0;fontSize=9;endArrow=none;endFill=0;endSize=12;" edge="1" parent="1" source="dXkiN72xanmllNpG-M6N-16" target="dXkiN72xanmllNpG-M6N-1">
          <mxGeometry relative="1" as="geometry" />
        </mxCell>
        <mxCell id="dXkiN72xanmllNpG-M6N-15" style="edgeStyle=orthogonalEdgeStyle;html=1;exitX=0.75;exitY=1;exitDx=0;exitDy=0;entryX=0.5;entryY=0;entryDx=0;entryDy=0;endArrow=none;endFill=0;endSize=12;" edge="1" parent="1" source="dXkiN72xanmllNpG-M6N-16" target="dXkiN72xanmllNpG-M6N-42">
          <mxGeometry relative="1" as="geometry" />
        </mxCell>
        <mxCell id="dXkiN72xanmllNpG-M6N-16" value="Factor" style="html=1;" vertex="1" parent="1">
          <mxGeometry x="610" y="520" width="120" height="40" as="geometry" />
        </mxCell>
        <mxCell id="dXkiN72xanmllNpG-M6N-17" style="edgeStyle=orthogonalEdgeStyle;html=1;exitX=0.5;exitY=1;exitDx=0;exitDy=0;entryX=0.25;entryY=0;entryDx=0;entryDy=0;endArrow=block;endFill=0;endSize=12;" edge="1" parent="1" source="dXkiN72xanmllNpG-M6N-22" target="dXkiN72xanmllNpG-M6N-16">
          <mxGeometry relative="1" as="geometry" />
        </mxCell>
        <mxCell id="dXkiN72xanmllNpG-M6N-18" value="extends&lt;br&gt;&lt;font style=&quot;font-size: 9px;&quot;&gt;(linear emissions)&lt;/font&gt;" style="edgeLabel;html=1;align=right;verticalAlign=middle;resizable=0;points=[];" vertex="1" connectable="0" parent="dXkiN72xanmllNpG-M6N-17">
          <mxGeometry x="-0.2424" relative="1" as="geometry">
            <mxPoint x="-10" as="offset" />
          </mxGeometry>
        </mxCell>
        <mxCell id="dXkiN72xanmllNpG-M6N-19" style="edgeStyle=orthogonalEdgeStyle;html=1;exitX=1;exitY=0.5;exitDx=0;exitDy=0;entryX=0.5;entryY=1;entryDx=0;entryDy=0;fontFamily=Helvetica;fontSize=12;endArrow=none;endFill=0;endSize=12;" edge="1" parent="1" source="dXkiN72xanmllNpG-M6N-22" target="dXkiN72xanmllNpG-M6N-26">
          <mxGeometry relative="1" as="geometry" />
        </mxCell>
        <mxCell id="dXkiN72xanmllNpG-M6N-20" style="edgeStyle=orthogonalEdgeStyle;html=1;exitX=0.75;exitY=1;exitDx=0;exitDy=0;entryX=0;entryY=0.5;entryDx=0;entryDy=0;fontFamily=Helvetica;fontSize=11;endArrow=diamondThin;endFill=1;endSize=12;" edge="1" parent="1" source="dXkiN72xanmllNpG-M6N-6" target="dXkiN72xanmllNpG-M6N-22">
          <mxGeometry relative="1" as="geometry" />
        </mxCell>
        <mxCell id="dXkiN72xanmllNpG-M6N-21" value="1" style="edgeLabel;html=1;align=center;verticalAlign=middle;resizable=0;points=[];fontSize=11;fontFamily=Helvetica;" vertex="1" connectable="0" parent="dXkiN72xanmllNpG-M6N-20">
          <mxGeometry x="-0.8076" y="1" relative="1" as="geometry">
            <mxPoint x="9" y="-4" as="offset" />
          </mxGeometry>
        </mxCell>
        <mxCell id="dXkiN72xanmllNpG-M6N-22" value="AttributeFactor" style="swimlane;fontStyle=0;childLayout=stackLayout;horizontal=1;startSize=26;fillColor=none;horizontalStack=0;resizeParent=1;resizeParentMax=0;resizeLast=0;collapsible=1;marginBottom=0;" vertex="1" parent="1">
          <mxGeometry x="570" y="358" width="140" height="104" as="geometry">
            <mxRectangle x="560" y="268" width="140" height="102" as="alternateBounds" />
          </mxGeometry>
        </mxCell>
        <mxCell id="dXkiN72xanmllNpG-M6N-23" value="+ attribute: Attribute" style="text;strokeColor=none;fillColor=none;align=left;verticalAlign=top;spacingLeft=4;spacingRight=4;overflow=hidden;rotatable=0;points=[[0,0.5],[1,0.5]];portConstraint=eastwest;" vertex="1" parent="dXkiN72xanmllNpG-M6N-22">
          <mxGeometry y="26" width="140" height="26" as="geometry" />
        </mxCell>
        <mxCell id="dXkiN72xanmllNpG-M6N-24" value="+ value: Value" style="text;strokeColor=none;fillColor=none;align=left;verticalAlign=top;spacingLeft=4;spacingRight=4;overflow=hidden;rotatable=0;points=[[0,0.5],[1,0.5]];portConstraint=eastwest;" vertex="1" parent="dXkiN72xanmllNpG-M6N-22">
          <mxGeometry y="52" width="140" height="26" as="geometry" />
        </mxCell>
        <mxCell id="dXkiN72xanmllNpG-M6N-25" value="+ qualifier?: string" style="text;strokeColor=none;fillColor=none;align=left;verticalAlign=top;spacingLeft=4;spacingRight=4;overflow=hidden;rotatable=0;points=[[0,0.5],[1,0.5]];portConstraint=eastwest;" vertex="1" parent="dXkiN72xanmllNpG-M6N-22">
          <mxGeometry y="78" width="140" height="26" as="geometry" />
        </mxCell>
        <mxCell id="dXkiN72xanmllNpG-M6N-26" value="Attribute" style="swimlane;fontStyle=0;childLayout=stackLayout;horizontal=1;startSize=26;fillColor=none;horizontalStack=0;resizeParent=1;resizeParentMax=0;resizeLast=0;collapsible=1;marginBottom=0;fontFamily=Helvetica;fontSize=12;" vertex="1" parent="1">
          <mxGeometry x="770" y="210" width="140" height="130" as="geometry">
            <mxRectangle x="760" y="120" width="90" height="30" as="alternateBounds" />
          </mxGeometry>
        </mxCell>
        <mxCell id="dXkiN72xanmllNpG-M6N-27" value="+ name: string" style="text;strokeColor=none;fillColor=none;align=left;verticalAlign=top;spacingLeft=4;spacingRight=4;overflow=hidden;rotatable=0;points=[[0,0.5],[1,0.5]];portConstraint=eastwest;fontFamily=Helvetica;fontSize=12;" vertex="1" parent="dXkiN72xanmllNpG-M6N-26">
          <mxGeometry y="26" width="140" height="26" as="geometry" />
        </mxCell>
        <mxCell id="dXkiN72xanmllNpG-M6N-28" value="+ target: event | object" style="text;strokeColor=none;fillColor=none;align=left;verticalAlign=top;spacingLeft=4;spacingRight=4;overflow=hidden;rotatable=0;points=[[0,0.5],[1,0.5]];portConstraint=eastwest;fontFamily=Helvetica;fontSize=12;" vertex="1" parent="dXkiN72xanmllNpG-M6N-26">
          <mxGeometry y="52" width="140" height="26" as="geometry" />
        </mxCell>
        <mxCell id="dXkiN72xanmllNpG-M6N-29" value="+ numeric: boolean" style="text;strokeColor=none;fillColor=none;align=left;verticalAlign=top;spacingLeft=4;spacingRight=4;overflow=hidden;rotatable=0;points=[[0,0.5],[1,0.5]];portConstraint=eastwest;fontFamily=Helvetica;fontSize=12;" vertex="1" parent="dXkiN72xanmllNpG-M6N-26">
          <mxGeometry y="78" width="140" height="26" as="geometry" />
        </mxCell>
        <mxCell id="dXkiN72xanmllNpG-M6N-30" value="+ unit: Unit" style="text;strokeColor=none;fillColor=none;align=left;verticalAlign=top;spacingLeft=4;spacingRight=4;overflow=hidden;rotatable=0;points=[[0,0.5],[1,0.5]];portConstraint=eastwest;fontFamily=Helvetica;fontSize=12;" vertex="1" parent="dXkiN72xanmllNpG-M6N-26">
          <mxGeometry y="104" width="140" height="26" as="geometry" />
        </mxCell>
        <mxCell id="dXkiN72xanmllNpG-M6N-31" value="EventAttribute" style="swimlane;fontStyle=0;childLayout=stackLayout;horizontal=1;startSize=26;fillColor=none;horizontalStack=0;resizeParent=1;resizeParentMax=0;resizeLast=0;collapsible=1;marginBottom=0;fontFamily=Helvetica;fontSize=12;" vertex="1" parent="1">
          <mxGeometry x="670" y="130" width="140" height="52" as="geometry">
            <mxRectangle x="630" y="30" width="120" height="30" as="alternateBounds" />
          </mxGeometry>
        </mxCell>
        <mxCell id="dXkiN72xanmllNpG-M6N-32" value="+ activity: string" style="text;strokeColor=none;fillColor=none;align=left;verticalAlign=top;spacingLeft=4;spacingRight=4;overflow=hidden;rotatable=0;points=[[0,0.5],[1,0.5]];portConstraint=eastwest;fontFamily=Helvetica;fontSize=12;" vertex="1" parent="dXkiN72xanmllNpG-M6N-31">
          <mxGeometry y="26" width="140" height="26" as="geometry" />
        </mxCell>
        <mxCell id="dXkiN72xanmllNpG-M6N-33" value="" style="edgeStyle=orthogonalEdgeStyle;html=1;fontFamily=Helvetica;fontSize=12;endArrow=block;endFill=0;endSize=12;entryX=1;entryY=0.5;entryDx=0;entryDy=0;exitX=0.5;exitY=1;exitDx=0;exitDy=0;" edge="1" parent="1" source="dXkiN72xanmllNpG-M6N-34" target="dXkiN72xanmllNpG-M6N-26">
          <mxGeometry relative="1" as="geometry">
            <mxPoint x="1010" y="160" as="sourcePoint" />
            <mxPoint x="920" y="215" as="targetPoint" />
          </mxGeometry>
        </mxCell>
        <mxCell id="dXkiN72xanmllNpG-M6N-34" value="ObjectAttribute" style="swimlane;fontStyle=0;childLayout=stackLayout;horizontal=1;startSize=30;fillColor=none;horizontalStack=0;resizeParent=1;resizeParentMax=0;resizeLast=0;collapsible=1;marginBottom=0;fontFamily=Helvetica;fontSize=12;" vertex="1" parent="1">
          <mxGeometry x="890" y="110" width="120" height="82" as="geometry">
            <mxRectangle x="950" y="30" width="120" height="30" as="alternateBounds" />
          </mxGeometry>
        </mxCell>
        <mxCell id="dXkiN72xanmllNpG-M6N-35" value="+ objectType: string" style="text;strokeColor=none;fillColor=none;align=left;verticalAlign=top;spacingLeft=4;spacingRight=4;overflow=hidden;rotatable=0;points=[[0,0.5],[1,0.5]];portConstraint=eastwest;fontFamily=Helvetica;fontSize=12;" vertex="1" parent="dXkiN72xanmllNpG-M6N-34">
          <mxGeometry y="30" width="120" height="26" as="geometry" />
        </mxCell>
        <mxCell id="dXkiN72xanmllNpG-M6N-36" value="+ dynamic: boolean" style="text;strokeColor=none;fillColor=none;align=left;verticalAlign=top;spacingLeft=4;spacingRight=4;overflow=hidden;rotatable=0;points=[[0,0.5],[1,0.5]];portConstraint=eastwest;fontFamily=Helvetica;fontSize=12;" vertex="1" parent="dXkiN72xanmllNpG-M6N-34">
          <mxGeometry y="56" width="120" height="26" as="geometry" />
        </mxCell>
        <mxCell id="dXkiN72xanmllNpG-M6N-37" value="" style="edgeStyle=orthogonalEdgeStyle;html=1;fontFamily=Helvetica;fontSize=12;endArrow=block;endFill=0;endSize=12;entryX=0;entryY=0.5;entryDx=0;entryDy=0;exitX=0.5;exitY=1;exitDx=0;exitDy=0;" edge="1" parent="1" source="dXkiN72xanmllNpG-M6N-31" target="dXkiN72xanmllNpG-M6N-26">
          <mxGeometry relative="1" as="geometry">
            <mxPoint x="930" y="160" as="sourcePoint" />
            <mxPoint x="870" y="235" as="targetPoint" />
          </mxGeometry>
        </mxCell>
        <mxCell id="dXkiN72xanmllNpG-M6N-38" value="&lt;font style=&quot;font-size: 11px;&quot;&gt;extends&lt;/font&gt;&lt;br&gt;&lt;font style=&quot;font-size: 9px;&quot;&gt;(multiply factors)&lt;/font&gt;" style="edgeStyle=orthogonalEdgeStyle;html=1;exitX=0;exitY=0.5;exitDx=0;exitDy=0;entryX=1;entryY=0.5;entryDx=0;entryDy=0;fontFamily=Helvetica;fontSize=12;endArrow=block;endFill=0;endSize=12;align=left;" edge="1" parent="1">
          <mxGeometry x="0.6667" y="20" relative="1" as="geometry">
            <mxPoint x="850" y="540" as="sourcePoint" />
            <mxPoint x="730" y="540" as="targetPoint" />
            <mxPoint as="offset" />
          </mxGeometry>
        </mxCell>
        <mxCell id="dXkiN72xanmllNpG-M6N-39" style="edgeStyle=orthogonalEdgeStyle;html=1;exitX=0.75;exitY=0;exitDx=0;exitDy=0;fontFamily=Helvetica;fontSize=12;endArrow=diamondThin;endFill=1;endSize=12;entryX=0.5;entryY=0;entryDx=0;entryDy=0;" edge="1" parent="1" source="dXkiN72xanmllNpG-M6N-16" target="dXkiN72xanmllNpG-M6N-41">
          <mxGeometry relative="1" as="geometry">
            <mxPoint x="940" y="470" as="targetPoint" />
            <Array as="points">
              <mxPoint x="700" y="470" />
              <mxPoint x="910" y="470" />
            </Array>
          </mxGeometry>
        </mxCell>
        <mxCell id="dXkiN72xanmllNpG-M6N-40" value="1..n" style="edgeLabel;html=1;align=left;verticalAlign=middle;resizable=0;points=[];fontSize=11;fontFamily=Helvetica;" vertex="1" connectable="0" parent="dXkiN72xanmllNpG-M6N-39">
          <mxGeometry x="-0.6798" relative="1" as="geometry">
            <mxPoint x="10" y="36" as="offset" />
          </mxGeometry>
        </mxCell>
        <mxCell id="dXkiN72xanmllNpG-M6N-41" value="ProductFactor" style="html=1;" vertex="1" parent="1">
          <mxGeometry x="850" y="520" width="120" height="40" as="geometry" />
        </mxCell>
        <mxCell id="dXkiN72xanmllNpG-M6N-42" value="E2OEmissionRule" style="swimlane;fontStyle=0;childLayout=stackLayout;horizontal=1;startSize=40;fillColor=none;horizontalStack=0;resizeParent=1;resizeParentMax=0;resizeLast=0;collapsible=1;marginBottom=0;" vertex="1" parent="1">
          <mxGeometry x="690" y="650" width="200" height="144" as="geometry">
            <mxRectangle x="470" y="345" width="150" height="40" as="alternateBounds" />
          </mxGeometry>
        </mxCell>
        <mxCell id="dXkiN72xanmllNpG-M6N-43" value="+ activity" style="text;strokeColor=none;fillColor=none;align=left;verticalAlign=top;spacingLeft=4;spacingRight=4;overflow=hidden;rotatable=0;points=[[0,0.5],[1,0.5]];portConstraint=eastwest;" vertex="1" parent="dXkiN72xanmllNpG-M6N-42">
          <mxGeometry y="40" width="200" height="26" as="geometry" />
        </mxCell>
        <mxCell id="dXkiN72xanmllNpG-M6N-44" value="+ objectType" style="text;strokeColor=none;fillColor=none;align=left;verticalAlign=top;spacingLeft=4;spacingRight=4;overflow=hidden;rotatable=0;points=[[0,0.5],[1,0.5]];portConstraint=eastwest;" vertex="1" parent="dXkiN72xanmllNpG-M6N-42">
          <mxGeometry y="66" width="200" height="26" as="geometry" />
        </mxCell>
        <mxCell id="dXkiN72xanmllNpG-M6N-45" value="+ qualifier?" style="text;strokeColor=none;fillColor=none;align=left;verticalAlign=top;spacingLeft=4;spacingRight=4;overflow=hidden;rotatable=0;points=[[0,0.5],[1,0.5]];portConstraint=eastwest;" vertex="1" parent="dXkiN72xanmllNpG-M6N-42">
          <mxGeometry y="92" width="200" height="26" as="geometry" />
        </mxCell>
        <mxCell id="dXkiN72xanmllNpG-M6N-46" value="+ factor: Factor" style="text;strokeColor=none;fillColor=none;align=left;verticalAlign=top;spacingLeft=4;spacingRight=4;overflow=hidden;rotatable=0;points=[[0,0.5],[1,0.5]];portConstraint=eastwest;" vertex="1" parent="dXkiN72xanmllNpG-M6N-42">
          <mxGeometry y="118" width="200" height="26" as="geometry" />
        </mxCell>
        <mxCell id="dXkiN72xanmllNpG-M6N-47" value="&lt;font style=&quot;font-size: 6px;&quot;&gt;&lt;b&gt;DEPR &lt;/b&gt;&lt;i&gt;[EventEmissionRule also has an objectType/qualifier property to access attributes of related objects.&lt;br style=&quot;border-color: var(--border-color);&quot;&gt;This access is however limited to one object per event.&lt;br style=&quot;border-color: var(--border-color);&quot;&gt;When multiple relationships are found, a warning is issued and the event is ignored.]&lt;/i&gt;&lt;/font&gt;&lt;br&gt;&lt;font style=&quot;font-size: 6px;&quot;&gt;&lt;b&gt;UPDATE &lt;/b&gt;&lt;/font&gt;EventEmissionRule has had the objectType/qualifier property removed. Object attributes of uniquely related objects per event and object type / qualifier can still be used. However, multiplicative factors can even use multiple attributes of different object types!&lt;br&gt;&lt;br style=&quot;border-color: var(--border-color);&quot;&gt;&lt;font style=&quot;font-size: 6px;&quot;&gt;&lt;b&gt;DEPR &lt;/b&gt;&lt;i&gt;[As the defining properties of Event/E2OEmissionRule are now the same, one could think of using just one class and specifying the computation level as an extra property.]&lt;/i&gt;&lt;/font&gt;&lt;br&gt;&lt;b&gt;&lt;font style=&quot;font-size: 6px;&quot;&gt;UPDATE&lt;/font&gt;&lt;/b&gt; We do separate in two classes (different methods). Also, ot/q has been removed.&lt;br&gt;&lt;br&gt;Validation checks:&lt;br&gt;&lt;span style=&quot;border-color: var(--border-color); background-color: initial;&quot;&gt;- E2OEmissionRule needs objectType&lt;br style=&quot;border-color: var(--border-color);&quot;&gt;&lt;/span&gt;&lt;span style=&quot;border-color: var(--border-color);&quot;&gt;- activity, objectType and qualifier are related&lt;/span&gt;&lt;br&gt;&lt;span style=&quot;background-color: initial;&quot;&gt;- only attributes of the given activity/objectType can be used, or those of a uniquely related objectType.&lt;br&gt;&lt;/span&gt;&lt;br&gt;Remember: The goal is to compute E2O Emissions (in order to aggregate by objects and process executions / variants.&lt;br&gt;An EventEmissionRule therefore needs further specification how to map event emissions to the objects related to the event. (&lt;a href=&quot;https://raihensen.atlassian.net/jira/software/projects/MA/boards/2?selectedIssue=MA-175&quot;&gt;MA-175&lt;/a&gt;)&lt;br&gt;This involves: target objectType (+qualifier), object attribute to use as weight (or None, yielding equal distribution)&lt;br&gt;&lt;br&gt;Even though this direction is more important, we also need E2O Emissions -&amp;gt; Event emissions (in order to aggregate by events and activities). This is always just a sum and does not need extra configuration." style="whiteSpace=wrap;html=1;fontSize=8;align=left;strokeColor=none;fillColor=none;" vertex="1" parent="1">
          <mxGeometry x="440" y="820" width="340" height="230" as="geometry" />
        </mxCell>
        <mxCell id="dXkiN72xanmllNpG-M6N-48" value="need Value class?&lt;br style=&quot;font-size: 9px;&quot;&gt;currently use pint.Quantity&lt;br style=&quot;font-size: 9px;&quot;&gt;how to include climatiq ID?" style="text;html=1;align=left;verticalAlign=middle;resizable=0;points=[];autosize=1;strokeColor=none;fillColor=none;fontSize=9;" vertex="1" parent="1">
          <mxGeometry x="420" y="430" width="130" height="50" as="geometry" />
        </mxCell>
      </root>
    </mxGraphModel>
  </diagram>
</mxfile>
